<svg width="12" height="13" viewBox="0 0 12 13" fill="none" xmlns="http://www.w3.org/2000/svg">
<path fill-rule="evenodd" clip-rule="evenodd" d="M3.85714 1.76339C3.85714 1.29001 3.47339 0.90625 3 0.90625C2.52661 0.90625 2.14286 1.29001 2.14286 1.76339V2.61984H1.28571C0.575634 2.61984 0 3.19547 0 3.90555V5.19127H12V3.90555C12 3.19547 11.4244 2.61984 10.7143 2.61984H9.85714V1.76339C9.85714 1.29001 9.47339 0.90625 9 0.90625C8.52661 0.90625 8.14286 1.29001 8.14286 1.76339V2.61984H3.85714V1.76339ZM12 6.26339H0V11.6205C0 12.3306 0.575634 12.9062 1.28571 12.9062H10.7143C11.4244 12.9062 12 12.3306 12 11.6205V6.26339Z" fill="black"/>
</svg>
