<svg width="64" height="64" viewBox="0 0 64 64" fill="none" xmlns="http://www.w3.org/2000/svg">
<path d="M32 6C26.8577 6 21.8309 7.52487 17.5552 10.3818C13.2795 13.2387 9.94702 17.2994 7.97914 22.0502C6.01127 26.8011 5.49638 32.0288 6.49959 37.0723C7.50281 42.1159 9.97907 46.7486 13.6152 50.3848C17.2514 54.0209 21.8842 56.4972 26.9277 57.5004C31.9712 58.5036 37.1989 57.9887 41.9498 56.0209C46.7007 54.053 50.7613 50.7205 53.6182 46.4448C56.4751 42.1691 58 37.1423 58 32C57.9927 25.1066 55.2511 18.4976 50.3767 13.6233C45.5024 8.74889 38.8934 6.00728 32 6ZM15.5725 46.6175L16.2025 46.205C16.7526 45.8421 17.2046 45.3489 17.5182 44.7693C17.8318 44.1897 17.9973 43.5415 18 42.8825L18.0525 33.825L23.2925 26C23.3182 26.0198 23.3449 26.0381 23.3725 26.055L28.29 29.2725C29.1141 29.8541 30.1281 30.1016 31.1275 29.965L39 28.8975C39.9708 28.7679 40.8604 28.2867 41.5 27.545L47.0425 21.105C47.6623 20.3788 48.002 19.4548 48 18.5V16.9175C50.7052 19.7795 52.5912 23.316 53.4607 27.157C54.3303 30.9979 54.1513 35.002 52.9425 38.75L48.9075 35.06C48.3466 34.5451 47.6503 34.201 46.9006 34.0682C46.1508 33.9353 45.3787 34.0192 44.675 34.31L37.06 37.4725C36.4233 37.7398 35.8661 38.1665 35.4422 38.7117C35.0184 39.2569 34.7421 39.902 34.64 40.585L34.0425 44.6325C33.8989 45.6067 34.1197 46.5997 34.6626 47.4212C35.2056 48.2428 36.0325 48.8352 36.985 49.085L42.35 50.5L42.94 51.0925C38.559 53.6061 33.4457 54.5335 28.461 53.7184C23.4763 52.9034 18.9247 50.3956 15.5725 46.6175Z" fill="#343330"/>
</svg>
