<svg width="65" height="64" viewBox="0 0 65 64" fill="none" xmlns="http://www.w3.org/2000/svg">
<path d="M58.667 32.0002V52.0001C58.667 54.6523 57.6134 57.1959 55.7381 59.0712C53.8627 60.9466 51.3192 62.0001 48.667 62.0001H34.667C34.1366 62.0001 33.6278 61.7894 33.2528 61.4144C32.8777 61.0393 32.667 60.5306 32.667 60.0001C32.667 59.4697 32.8777 58.961 33.2528 58.5859C33.6278 58.2109 34.1366 58.0001 34.667 58.0001H48.667C50.2583 58.0001 51.7844 57.368 52.9096 56.2428C54.0349 55.1176 54.667 53.5914 54.667 52.0001H48.667C47.0757 52.0001 45.5496 51.368 44.4244 50.2428C43.2991 49.1176 42.667 47.5914 42.667 46.0001V36.0002C42.667 34.4089 43.2991 32.8827 44.4244 31.7575C45.5496 30.6323 47.0757 30.0002 48.667 30.0002H54.5795C54.201 25.8425 52.6474 21.8784 50.1 18.5708C47.5526 15.2632 44.1167 12.7487 40.1935 11.321C36.2704 9.89329 32.022 9.61134 27.9446 10.5081C23.8672 11.4048 20.1291 13.4432 17.167 16.3852C13.4836 20.0199 11.2118 24.8454 10.757 30.0002H16.667C18.2583 30.0002 19.7844 30.6323 20.9096 31.7575C22.0349 32.8827 22.667 34.4089 22.667 36.0002V46.0001C22.667 47.5914 22.0349 49.1176 20.9096 50.2428C19.7844 51.368 18.2583 52.0001 16.667 52.0001H12.667C11.0757 52.0001 9.54957 51.368 8.42435 50.2428C7.29913 49.1176 6.66699 47.5914 6.66699 46.0001V32.0002C6.6726 26.8499 8.20605 21.8171 11.0733 17.5387C13.9405 13.2604 18.0125 9.92882 22.774 7.96577C27.5354 6.00273 32.7723 5.49643 37.8216 6.51098C42.871 7.52552 47.5058 10.0153 51.1395 13.6652C53.5386 16.0759 55.4384 18.9364 56.7301 22.0826C58.0218 25.2289 58.68 28.5991 58.667 32.0002Z" fill="#343330"/>
</svg>
