<svg width="12" height="13" viewBox="0 0 12 13" fill="none" xmlns="http://www.w3.org/2000/svg">
<path fill-rule="evenodd" clip-rule="evenodd" d="M6.85617 4.4142C6.85617 5.83436 5.7049 6.98563 4.28474 6.98563C2.86458 6.98563 1.71331 5.83436 1.71331 4.4142C1.71331 2.99404 2.86458 1.84277 4.28474 1.84277C5.7049 1.84277 6.85617 2.99404 6.85617 4.4142ZM4.28474 7.84275C1.9178 7.84275 -0.000976562 9.76153 -0.000976562 12.1285C-0.000976562 12.3652 0.190901 12.557 0.427595 12.557H8.14188C8.37857 12.557 8.57045 12.3652 8.57045 12.1285C8.57045 9.76153 6.65167 7.84275 4.28474 7.84275ZM11.5716 12.5571H9.5809C9.6213 12.4213 9.64299 12.2775 9.64299 12.1286C9.64299 10.379 8.80431 8.82538 7.50705 7.8477C7.57576 7.84443 7.64489 7.84277 7.71441 7.84277C10.0813 7.84277 12.0001 9.76155 12.0001 12.1285C12.0001 12.3652 11.8083 12.5571 11.5716 12.5571ZM7.714 6.98563C7.45553 6.98563 7.20597 6.94749 6.97064 6.87655C7.56557 6.22818 7.9287 5.36367 7.9287 4.41434C7.9287 3.46491 7.56549 2.60031 6.97043 1.95192C7.20583 1.88093 7.45546 1.84277 7.714 1.84277C9.13416 1.84277 10.2854 2.99404 10.2854 4.4142C10.2854 5.83436 9.13416 6.98563 7.714 6.98563Z" fill="black"/>
</svg>
