<svg width="24" height="25" viewBox="0 0 24 25" fill="none" xmlns="http://www.w3.org/2000/svg">
<path d="M19.4851 20.654L13.2231 14.392C12.7231 14.818 12.1481 15.1476 11.4981 15.381C10.8481 15.6143 10.1948 15.731 9.53811 15.731C7.93677 15.731 6.58144 15.1766 5.47211 14.068C4.36277 12.9586 3.80811 11.6036 3.80811 10.003C3.80811 8.40232 4.36211 7.04665 5.47011 5.93598C6.57877 4.82465 7.93344 4.26898 9.53411 4.26898C11.1354 4.26898 12.4914 4.82365 13.6021 5.93298C14.7128 7.04232 15.2681 8.39798 15.2681 9.99998C15.2681 10.6946 15.1451 11.367 14.8991 12.017C14.6524 12.667 14.3291 13.223 13.9291 13.685L20.1911 19.946L19.4851 20.654ZM9.53811 14.73C10.8648 14.73 11.9851 14.2733 12.8991 13.36C13.8124 12.4466 14.2691 11.3263 14.2691 9.99898C14.2691 8.67231 13.8124 7.55232 12.8991 6.63898C11.9858 5.72565 10.8658 5.26898 9.5391 5.26898C8.21244 5.26898 7.09211 5.72565 6.17811 6.63898C5.26477 7.55232 4.80811 8.67231 4.80811 9.99898C4.80811 11.3256 5.26477 12.4456 6.17811 13.359C7.09144 14.2723 8.21144 14.73 9.53811 14.73Z" fill="#082F49" fill-opacity="0.7"/>
</svg>
