<svg width="259" height="279" viewBox="0 0 259 279" fill="none" xmlns="http://www.w3.org/2000/svg">
<g clip-path="url(#clip0_439_1546)">
<path d="M144.736 66.3008H143.141V24.3057C143.141 17.8594 140.477 11.6772 135.735 7.11898C130.992 2.56078 124.56 8.13392e-06 117.854 0H25.2875C21.9667 -8.05487e-06 18.6784 0.628668 15.6104 1.85013C12.5424 3.0716 9.7547 4.86194 7.40655 7.11892C5.05839 9.3759 3.19573 12.0553 1.92491 15.0042C0.654092 17.9531 7.33276e-06 21.1137 0 24.3056V254.694C-3.1426e-06 257.886 0.654065 261.047 1.92487 263.996C3.19568 266.945 5.05835 269.624 7.4065 271.881C9.75465 274.138 12.5423 275.928 15.6103 277.15C18.6783 278.371 21.9666 279 25.2874 279H117.854C124.56 279 130.992 276.439 135.734 271.881C140.477 267.323 143.141 261.141 143.141 254.694V96.1937H144.736V66.3008Z" fill="#082F49" fill-opacity="0.5"/>
<path d="M118.874 6.32352H106.791C107.347 7.63294 107.559 9.05361 107.409 10.4604C107.258 11.8671 106.751 13.2168 105.93 14.3906C105.109 15.5643 104.001 16.526 102.703 17.191C101.404 17.856 99.9554 18.2039 98.4841 18.204H45.4542C43.9829 18.2039 42.5342 17.856 41.2358 17.191C39.9373 16.526 38.8289 15.5643 38.0083 14.3905C37.1876 13.2168 36.6799 11.8671 36.5298 10.4604C36.3796 9.05358 36.5917 7.63291 37.1474 6.32349H25.8619C20.8535 6.32348 16.0502 8.23583 12.5087 11.6398C8.96715 15.0438 6.97755 19.6607 6.97754 24.4747V254.525C6.97754 259.339 8.96713 263.956 12.5086 267.36C16.0501 270.764 20.8534 272.677 25.8619 272.677H118.874C121.354 272.677 123.809 272.207 126.101 271.295C128.392 270.383 130.474 269.046 132.227 267.36C133.981 265.675 135.372 263.674 136.321 261.472C137.27 259.269 137.758 256.909 137.758 254.525V24.4747C137.758 22.091 137.27 19.7307 136.321 17.5285C135.372 15.3263 133.981 13.3253 132.227 11.6399C130.474 9.95437 128.392 8.61736 126.101 7.70518C123.809 6.793 121.354 6.32351 118.874 6.32352Z" fill="white"/>
<path d="M130.084 187.01H18.5594C18.0118 187.009 17.4869 186.8 17.0997 186.427C16.7126 186.055 16.4948 185.551 16.4941 185.025V158.434C16.4948 157.908 16.7126 157.404 17.0997 157.031C17.4869 156.659 18.0118 156.45 18.5594 156.449H130.084C130.631 156.45 131.156 156.659 131.543 157.031C131.93 157.404 132.148 157.908 132.149 158.434V185.025C132.148 185.551 131.93 186.056 131.543 186.428C131.156 186.8 130.631 187.009 130.084 187.01ZM18.5594 157.243C18.2308 157.244 17.9158 157.369 17.6835 157.592C17.4511 157.816 17.3205 158.119 17.3202 158.434V185.025C17.3205 185.341 17.4511 185.643 17.6835 185.867C17.9158 186.09 18.2308 186.216 18.5594 186.216H130.084C130.412 186.216 130.727 186.09 130.959 185.867C131.192 185.643 131.322 185.341 131.323 185.025V158.434C131.322 158.119 131.192 157.816 130.959 157.592C130.727 157.369 130.412 157.244 130.084 157.243H18.5594Z" fill="#E6E6E6"/>
<path d="M33.0158 180.067C37.8064 180.067 41.6899 176.334 41.6899 171.729C41.6899 167.125 37.8064 163.392 33.0158 163.392C28.2253 163.392 24.3418 167.125 24.3418 171.729C24.3418 176.334 28.2253 180.067 33.0158 180.067Z" fill="#E6E6E6"/>
<path d="M53.0488 166.171C52.6695 166.177 52.3079 166.326 52.042 166.586C51.776 166.846 51.627 167.196 51.627 167.561C51.627 167.925 51.776 168.275 52.042 168.535C52.3079 168.795 52.6695 168.944 53.0488 168.95H121.202C121.586 168.957 121.956 168.818 122.233 168.562C122.509 168.307 122.668 167.956 122.676 167.588C122.683 167.219 122.538 166.863 122.272 166.597C122.006 166.332 121.641 166.179 121.258 166.171L121.25 166.171C121.234 166.171 121.218 166.171 121.202 166.171H53.0488Z" fill="#E6E6E6"/>
<path d="M53.0488 174.509C52.6695 174.515 52.3079 174.664 52.042 174.924C51.776 175.184 51.627 175.534 51.627 175.898C51.627 176.263 51.776 176.613 52.042 176.873C52.3079 177.132 52.6695 177.282 53.0488 177.288H121.202C121.585 177.293 121.954 177.152 122.229 176.895C122.504 176.639 122.662 176.289 122.668 175.921C122.674 175.553 122.528 175.198 122.263 174.933C121.997 174.668 121.632 174.516 121.25 174.509C121.234 174.508 121.218 174.508 121.202 174.509H53.0488Z" fill="#E6E6E6"/>
<path d="M130.084 231.475H18.5594C18.0118 231.475 17.4869 231.265 17.0997 230.893C16.7126 230.521 16.4948 230.017 16.4941 229.49V202.9C16.4948 202.374 16.7126 201.869 17.0997 201.497C17.4869 201.125 18.0118 200.916 18.5594 200.915H130.084C130.631 200.916 131.156 201.125 131.543 201.497C131.93 201.869 132.148 202.374 132.149 202.9V229.491C132.148 230.017 131.93 230.521 131.543 230.893C131.156 231.265 130.631 231.475 130.084 231.475ZM18.5594 201.709C18.2308 201.709 17.9158 201.835 17.6835 202.058C17.4511 202.282 17.3205 202.584 17.3202 202.9V229.491C17.3205 229.807 17.4511 230.109 17.6835 230.333C17.9158 230.556 18.2308 230.682 18.5594 230.682H130.084C130.412 230.682 130.727 230.556 130.959 230.333C131.192 230.109 131.322 229.807 131.323 229.491V202.9C131.322 202.584 131.192 202.282 130.959 202.058C130.727 201.835 130.412 201.709 130.084 201.709H18.5594Z" fill="#E6E6E6"/>
<path d="M33.0158 224.532C37.8064 224.532 41.6899 220.8 41.6899 216.195C41.6899 211.591 37.8064 207.858 33.0158 207.858C28.2253 207.858 24.3418 211.591 24.3418 216.195C24.3418 220.8 28.2253 224.532 33.0158 224.532Z" fill="#E6E6E6"/>
<path d="M53.0488 210.637C52.6695 210.643 52.3079 210.792 52.042 211.052C51.776 211.312 51.627 211.662 51.627 212.027C51.627 212.391 51.776 212.741 52.042 213.001C52.3079 213.261 52.6695 213.41 53.0488 213.416H121.202C121.585 213.421 121.954 213.28 122.229 213.024C122.504 212.768 122.662 212.417 122.668 212.049C122.674 211.681 122.528 211.326 122.263 211.061C121.997 210.797 121.632 210.644 121.25 210.637C121.234 210.637 121.218 210.637 121.202 210.637H53.0488Z" fill="#E6E6E6"/>
<path d="M53.0488 218.974C52.6695 218.98 52.3079 219.13 52.042 219.389C51.776 219.649 51.627 219.999 51.627 220.364C51.627 220.728 51.776 221.078 52.042 221.338C52.3079 221.598 52.6695 221.747 53.0488 221.753H121.202C121.585 221.759 121.954 221.617 122.229 221.361C122.504 221.105 122.662 220.755 122.668 220.387C122.674 220.019 122.528 219.663 122.263 219.399C121.997 219.134 121.632 218.981 121.25 218.974C121.234 218.974 121.218 218.974 121.202 218.974H53.0488Z" fill="#E6E6E6"/>
<path d="M71.9742 131.831C61.5715 131.835 51.5931 127.867 44.2342 120.8C36.8753 113.732 32.7387 104.145 32.7344 94.1459V94.1144C32.7344 94.0355 32.7344 93.9523 32.7392 93.8733C32.8588 73.2183 50.4606 56.3977 71.9742 56.3977C82.3812 56.3966 92.3625 60.3692 99.7222 67.4415C107.082 74.5139 111.217 84.1068 111.218 94.1098C111.22 104.113 107.087 113.707 99.7285 120.781C92.3705 127.855 82.3901 131.829 71.9831 131.83H71.9742V131.831ZM71.9742 57.1909C61.8325 57.2127 52.1095 61.0803 44.9178 67.9533C37.726 74.8263 33.6464 84.1495 33.5656 93.8971C33.5612 93.9814 33.5612 94.0504 33.5612 94.1133C33.5602 101.417 35.8125 108.557 40.0332 114.63C44.2539 120.703 50.2535 125.437 57.2732 128.232C64.2929 131.028 72.0175 131.76 79.4701 130.336C86.9228 128.912 93.7688 125.396 99.1424 120.233C104.516 115.069 108.176 108.489 109.659 101.327C111.143 94.1636 110.383 86.7387 107.476 79.9908C104.569 73.2429 99.6453 67.4751 93.3279 63.4168C87.0106 59.3584 79.583 57.1918 71.9845 57.1909H71.9742Z" fill="#E6E6E6"/>
<path d="M125.681 177.434C134.492 177.434 141.635 170.569 141.635 162.1C141.635 153.631 134.492 146.766 125.681 146.766C116.87 146.766 109.728 153.631 109.728 162.1C109.728 170.569 116.87 177.434 125.681 177.434Z" fill="white"/>
<path d="M120.14 168.999C120.113 168.999 120.085 168.999 120.058 168.998H111.483C110.395 168.982 109.357 168.555 108.593 167.809C107.83 167.064 107.402 166.06 107.401 165.014C107.401 163.968 107.828 162.964 108.591 162.218C109.354 161.472 110.391 161.045 111.479 161.027H120.062C120.104 161.027 120.15 161.027 120.195 161.027C121.29 161.042 122.334 161.472 123.1 162.223C123.866 162.975 124.292 163.987 124.285 165.039C124.278 166.092 123.838 167.098 123.061 167.84C122.285 168.582 121.235 168.998 120.14 168.999Z" fill="#082F49" fill-opacity="0.7"/>
<path d="M259 278.067H129.762V278.926H259V278.067Z" fill="#3F3D56"/>
<path d="M137.724 205.377C137.623 205.225 137.539 205.064 137.473 204.894L135.414 199.594C135.174 198.975 135.2 198.289 135.485 197.688C135.77 197.087 136.292 196.62 136.936 196.388L182.899 179.891C183.543 179.661 184.256 179.685 184.882 179.959C185.507 180.234 185.994 180.735 186.235 181.354L188.294 186.655C188.413 186.961 188.468 187.287 188.456 187.614C188.444 187.941 188.365 188.263 188.224 188.56C188.083 188.858 187.882 189.126 187.633 189.349C187.383 189.572 187.091 189.746 186.772 189.86L140.809 206.357C140.256 206.555 139.648 206.567 139.087 206.388C138.527 206.21 138.046 205.853 137.724 205.377Z" fill="#082F49" fill-opacity="0.7"/>
<path d="M182.753 178.521L164.062 185.685C163.473 185.856 162.975 186.237 162.671 186.751C162.367 187.265 162.28 187.872 162.429 188.445L164.598 196.793C164.684 197.123 164.845 197.43 165.069 197.693C165.293 197.956 165.575 198.168 165.894 198.314C166.214 198.459 166.563 198.535 166.916 198.536C167.27 198.536 167.619 198.462 167.939 198.317L186.682 189.837C187.276 189.623 187.757 189.192 188.02 188.637C188.284 188.083 188.308 187.451 188.088 186.879L185.835 179.873C185.612 179.301 185.162 178.838 184.585 178.584C184.007 178.331 183.348 178.308 182.753 178.521Z" fill="#0088F1"/>
<path d="M216.959 230.528C216.372 230.593 215.78 230.464 215.28 230.161C214.78 229.859 214.403 229.401 214.21 228.865L198.211 184.284C198.1 183.975 198.053 183.648 198.074 183.321C198.094 182.994 198.181 182.675 198.331 182.381C198.48 182.086 198.688 181.823 198.942 181.606C199.197 181.389 199.494 181.223 199.816 181.116L205.381 179.271C206.031 179.056 206.743 179.097 207.361 179.387C207.979 179.676 208.452 180.189 208.677 180.814L224.676 225.395C224.9 226.019 224.856 226.704 224.555 227.298C224.254 227.892 223.72 228.347 223.071 228.563L217.506 230.408C217.329 230.467 217.145 230.507 216.959 230.528Z" fill="#082F49" fill-opacity="0.7"/>
<path d="M209.869 180.051L216.01 198.47C216.248 199.015 216.258 199.627 216.039 200.179C215.82 200.732 215.388 201.182 214.833 201.436L206.752 205.138C206.433 205.284 206.084 205.361 205.73 205.362C205.377 205.363 205.027 205.289 204.707 205.145C204.387 205 204.104 204.79 203.878 204.528C203.653 204.266 203.491 203.959 203.403 203.63L198.286 184.336C198.08 183.76 198.12 183.128 198.398 182.58C198.675 182.032 199.167 181.612 199.766 181.412L206.824 178.625C207.424 178.427 208.082 178.465 208.653 178.733C209.224 179 209.661 179.474 209.869 180.051Z" fill="#0088F1"/>
<path d="M191.277 278.32H185.39C184.703 278.319 184.044 278.056 183.558 277.589C183.072 277.122 182.799 276.488 182.798 275.828V228.669C182.799 228.008 183.072 227.375 183.558 226.908C184.044 226.441 184.703 226.178 185.39 226.177H191.277C191.964 226.178 192.623 226.441 193.109 226.908C193.595 227.375 193.869 228.008 193.869 228.669V275.828C193.869 276.488 193.595 277.122 193.109 277.589C192.623 278.056 191.964 278.319 191.277 278.32Z" fill="#0088F1"/>
<path d="M202.92 278.32H197.033C196.346 278.319 195.687 278.056 195.201 277.589C194.715 277.122 194.442 276.488 194.441 275.828V228.669C194.442 228.008 194.715 227.375 195.201 226.908C195.687 226.441 196.346 226.178 197.033 226.177H202.92C203.608 226.178 204.267 226.441 204.753 226.908C205.239 227.375 205.512 228.008 205.513 228.669V275.828C205.512 276.488 205.239 277.122 204.753 277.589C204.267 278.056 203.608 278.319 202.92 278.32Z" fill="#0088F1"/>
<path d="M207.772 234.213H181.024C180.284 234.212 179.574 233.929 179.051 233.426C178.528 232.923 178.233 232.241 178.232 231.53V189.765C178.232 185.644 179.936 181.692 182.967 178.778C185.999 175.864 190.111 174.227 194.398 174.227C198.685 174.227 202.797 175.864 205.829 178.778C208.86 181.692 210.564 185.644 210.564 189.765V231.53C210.563 232.241 210.268 232.923 209.745 233.426C209.222 233.929 208.512 234.212 207.772 234.213Z" fill="white"/>
<path d="M211.798 244.429H198.237V170.765L198.489 170.831C202.308 171.839 205.678 174.023 208.082 177.048C210.486 180.073 211.791 183.773 211.798 187.579V244.429Z" fill="#0C77DC"/>
<path d="M189.457 244.429H175.896V187.579C175.903 183.773 177.208 180.073 179.612 177.048C182.016 174.023 185.386 171.839 189.205 170.831L189.457 170.765V244.429Z" fill="#0088F1"/>
<path d="M194.195 171.588C205.984 171.588 215.541 162.402 215.541 151.071C215.541 139.74 205.984 130.554 194.195 130.554C182.406 130.554 172.85 139.74 172.85 151.071C172.85 162.402 182.406 171.588 194.195 171.588Z" fill="#082F49" fill-opacity="0.7"/>
<path d="M218.328 144.347C218.328 144.347 219.525 112.528 203.97 122.879C203.97 122.879 194.996 93.9354 173.06 137.255L166.678 143.389C166.678 143.389 195.395 139.555 222.117 151.439L218.328 144.347Z" fill="#0088F1"/>
<path d="M194.521 159.232C193.203 159.196 191.562 159.152 190.298 158.265C189.921 157.99 189.612 157.639 189.391 157.237C189.171 156.834 189.044 156.391 189.021 155.937C188.998 155.614 189.053 155.291 189.182 154.992C189.311 154.693 189.51 154.427 189.763 154.214C190.423 153.678 191.388 153.552 192.427 153.846L191.35 146.284L192.14 146.18L193.406 155.07L192.746 154.779C191.981 154.441 190.931 154.27 190.278 154.8C190.118 154.938 189.993 155.111 189.913 155.303C189.833 155.496 189.801 155.703 189.818 155.91C189.838 156.248 189.932 156.578 190.096 156.877C190.26 157.177 190.489 157.439 190.768 157.646C191.752 158.336 193.06 158.425 194.543 158.465L194.521 159.232Z" fill="#2F2E41"/>
<path d="M187.442 146.936H183.146V147.703H187.442V146.936Z" fill="#2F2E41"/>
<path d="M201.002 146.936H196.706V147.703H201.002V146.936Z" fill="#2F2E41"/>
<path d="M146.603 207.333C146.027 207.59 145.369 207.616 144.773 207.406C144.177 207.197 143.692 206.768 143.425 206.215L129.661 177.699C129.394 177.145 129.366 176.513 129.584 175.94C129.803 175.367 130.249 174.901 130.824 174.645C131.4 174.388 132.058 174.361 132.654 174.571C133.25 174.781 133.735 175.209 134.002 175.763L147.767 204.278C148.034 204.832 148.061 205.465 147.843 206.037C147.625 206.61 147.179 207.076 146.603 207.333Z" fill="#082F49" fill-opacity="0.7"/>
<path d="M132.462 176.65C132.038 176.65 131.633 176.488 131.333 176.2C131.034 175.913 130.866 175.523 130.866 175.116V155.583H110.924C110.501 155.583 110.095 155.421 109.796 155.134C109.497 154.846 109.329 154.456 109.329 154.05C109.329 153.643 109.497 153.253 109.796 152.965C110.095 152.678 110.501 152.516 110.924 152.516H132.462C132.885 152.516 133.29 152.678 133.59 152.965C133.889 153.253 134.057 153.643 134.057 154.05V175.116C134.057 175.523 133.889 175.913 133.59 176.2C133.29 176.488 132.885 176.65 132.462 176.65Z" fill="#082F49" fill-opacity="0.7"/>
<path d="M132.839 178.817C129.404 180.349 125.574 180.867 121.833 180.307C118.092 179.746 114.607 178.132 111.821 175.668C109.034 173.204 107.07 170.001 106.177 166.464C105.284 162.927 105.503 159.216 106.804 155.798C108.106 152.381 110.433 149.411 113.491 147.265C116.549 145.118 120.2 143.892 123.984 143.74C127.767 143.588 131.512 144.518 134.745 146.412C137.978 148.306 140.554 151.079 142.148 154.381C144.279 158.808 144.496 163.868 142.75 168.449C141.005 173.03 137.441 176.759 132.839 178.817ZM118.739 149.606C116.163 150.755 113.999 152.612 112.521 154.943C111.043 157.274 110.317 159.973 110.436 162.7C110.554 165.428 111.511 168.06 113.186 170.264C114.861 172.469 117.178 174.146 119.845 175.085C122.511 176.023 125.408 176.18 128.167 175.537C130.927 174.893 133.426 173.477 135.349 171.468C137.272 169.46 138.531 166.948 138.969 164.251C139.406 161.554 139.002 158.793 137.806 156.317C136.2 152.999 133.291 150.43 129.716 149.172C126.142 147.914 122.194 148.07 118.739 149.606Z" fill="#082F49" fill-opacity="0.7"/>
</g>
<defs>
<clipPath id="clip0_439_1546">
<rect width="259" height="279" fill="white"/>
</clipPath>
</defs>
</svg>
