<svg width="65" height="64" viewBox="0 0 65 64" fill="none" xmlns="http://www.w3.org/2000/svg">
<path d="M54.333 18H14.333C13.8026 18 13.2939 17.7893 12.9188 17.4142C12.5437 17.0391 12.333 16.5304 12.333 16C12.333 15.4696 12.5437 14.9609 12.9188 14.5858C13.2939 14.2107 13.8026 14 14.333 14H48.333C48.8634 14 49.3722 13.7893 49.7472 13.4142C50.1223 13.0391 50.333 12.5304 50.333 12C50.333 11.4696 50.1223 10.9609 49.7472 10.5858C49.3722 10.2107 48.8634 10 48.333 10H14.333C12.7417 10 11.2156 10.6321 10.0904 11.7574C8.96515 12.8826 8.33301 14.4087 8.33301 16V48C8.33301 49.5913 8.96515 51.1174 10.0904 52.2426C11.2156 53.3679 12.7417 54 14.333 54H54.333C55.3939 54 56.4113 53.5786 57.1614 52.8284C57.9116 52.0783 58.333 51.0609 58.333 50V22C58.333 20.9391 57.9116 19.9217 57.1614 19.1716C56.4113 18.4214 55.3939 18 54.333 18ZM45.333 38C44.7397 38 44.1596 37.8241 43.6663 37.4944C43.173 37.1648 42.7884 36.6962 42.5614 36.148C42.3343 35.5999 42.2749 34.9967 42.3907 34.4147C42.5064 33.8328 42.7921 33.2982 43.2117 32.8787C43.6312 32.4591 44.1658 32.1734 44.7477 32.0576C45.3297 31.9419 45.9329 32.0013 46.4811 32.2284C47.0292 32.4554 47.4978 32.8399 47.8274 33.3333C48.1571 33.8266 48.333 34.4067 48.333 35C48.333 35.7956 48.0169 36.5587 47.4543 37.1213C46.8917 37.6839 46.1287 38 45.333 38Z" fill="#343330"/>
</svg>
