<svg width="171" height="60" viewBox="0 0 171 60" fill="none" xmlns="http://www.w3.org/2000/svg">
<rect y="0.5" width="170.25" height="58.6587" rx="8.48077" fill="#1C1B1E"/>
<path d="M50.79 37.3667C50.29 38.9694 49.5015 40.572 48.4245 42.1747C46.7705 44.6876 45.123 45.9441 43.4819 45.9441C42.8536 45.9441 41.9562 45.739 40.7894 45.3287C39.6868 44.9184 38.7188 44.7133 37.8854 44.7133C37.1033 44.7133 36.193 44.9248 35.1545 45.3479C34.116 45.7839 33.2698 46.0018 32.6159 46.0018C30.667 46.0018 28.7375 44.3415 26.8271 41.0208C24.9424 37.6744 24 34.4499 24 31.3471C24 28.4239 24.7244 26.0263 26.1732 24.1544C27.622 22.3082 29.4426 21.385 31.6351 21.385C32.5582 21.385 33.6929 21.5774 35.0391 21.962C36.3725 22.3466 37.2572 22.5389 37.6931 22.5389C38.2701 22.5389 39.1868 22.321 40.4433 21.8851C41.751 21.4491 42.8601 21.2312 43.7704 21.2312C45.2961 21.2312 46.6616 21.6479 47.8668 22.4813C48.5335 22.9428 49.2002 23.5839 49.8669 24.4044C48.854 25.2635 48.1232 26.0199 47.6744 26.6738C46.8411 27.879 46.4244 29.206 46.4244 30.6548C46.4244 32.2446 46.8667 33.6742 47.7514 34.9435C48.636 36.2128 49.6489 37.0205 50.79 37.3667ZM43.5588 14.8077C43.5588 15.5898 43.3729 16.4617 43.0011 17.4233C42.6165 18.3849 42.0203 19.2695 41.2125 20.0773C40.5202 20.7696 39.8278 21.2312 39.1355 21.462C38.6611 21.603 37.9944 21.712 37.1354 21.7889C37.1738 19.8785 37.6739 18.231 38.6355 16.8463C39.5842 15.4744 41.1869 14.5257 43.4434 14C43.4562 14.0385 43.4723 14.109 43.4915 14.2116C43.5107 14.3141 43.5268 14.3846 43.5396 14.4231C43.5396 14.4744 43.5428 14.5385 43.5492 14.6154C43.5556 14.6923 43.5588 14.7565 43.5588 14.8077Z" fill="#DDDDDD"/>
<path d="M66.4517 25.25H64.4318V18.7045H66.5411C67.1761 18.7045 67.7194 18.8356 68.1711 19.0977C68.6228 19.3576 68.9691 19.7315 69.2098 20.2195C69.4506 20.7053 69.571 21.2869 69.571 21.9645C69.571 22.6463 69.4495 23.2333 69.2066 23.7255C68.9637 24.2156 68.61 24.5927 68.1456 24.8569C67.6811 25.119 67.1164 25.25 66.4517 25.25ZM65.2244 24.5469H66.4005C66.9417 24.5469 67.3902 24.4425 67.746 24.2337C68.1019 24.0249 68.3671 23.7276 68.5419 23.342C68.7166 22.9563 68.8039 22.4972 68.8039 21.9645C68.8039 21.4361 68.7176 20.9812 68.5451 20.5998C68.3725 20.2163 68.1147 19.9222 67.7716 19.7177C67.4286 19.511 67.0014 19.4077 66.49 19.4077H65.2244V24.5469ZM72.7926 25.3523C72.3494 25.3523 71.9605 25.2468 71.626 25.0359C71.2936 24.8249 71.0337 24.5298 70.8462 24.1506C70.6608 23.7713 70.5681 23.3281 70.5681 22.821C70.5681 22.3097 70.6608 21.8633 70.8462 21.4819C71.0337 21.1005 71.2936 20.8043 71.626 20.5934C71.9605 20.3825 72.3494 20.277 72.7926 20.277C73.2358 20.277 73.6235 20.3825 73.9559 20.5934C74.2904 20.8043 74.5504 21.1005 74.7358 21.4819C74.9233 21.8633 75.017 22.3097 75.017 22.821C75.017 23.3281 74.9233 23.7713 74.7358 24.1506C74.5504 24.5298 74.2904 24.8249 73.9559 25.0359C73.6235 25.2468 73.2358 25.3523 72.7926 25.3523ZM72.7926 24.6747C73.1292 24.6747 73.4062 24.5884 73.6235 24.4158C73.8409 24.2433 74.0017 24.0163 74.1061 23.7351C74.2105 23.4538 74.2627 23.1491 74.2627 22.821C74.2627 22.4929 74.2105 22.1871 74.1061 21.9038C74.0017 21.6204 73.8409 21.3913 73.6235 21.2166C73.4062 21.0419 73.1292 20.9545 72.7926 20.9545C72.4559 20.9545 72.1789 21.0419 71.9616 21.2166C71.7443 21.3913 71.5834 21.6204 71.479 21.9038C71.3746 22.1871 71.3224 22.4929 71.3224 22.821C71.3224 23.1491 71.3746 23.4538 71.479 23.7351C71.5834 24.0163 71.7443 24.2433 71.9616 24.4158C72.1789 24.5884 72.4559 24.6747 72.7926 24.6747ZM77.1136 25.25L75.6179 20.3409H76.4105L77.4715 24.0994H77.5227L78.571 20.3409H79.3764L80.4119 24.0866H80.463L81.5241 20.3409H82.3167L80.821 25.25H80.0795L79.0056 21.4787H78.9289L77.8551 25.25H77.1136ZM84.0681 22.2969V25.25H83.3139V20.3409H84.0426V21.108H84.1065C84.2215 20.8587 84.3963 20.6584 84.6306 20.5071C84.865 20.3537 85.1676 20.277 85.5383 20.277C85.8707 20.277 86.1615 20.3452 86.4108 20.4815C86.6601 20.6158 86.854 20.8203 86.9925 21.0952C87.131 21.3679 87.2002 21.7131 87.2002 22.1307V25.25H86.446V22.1818C86.446 21.7962 86.3458 21.4957 86.1456 21.2805C85.9453 21.0632 85.6704 20.9545 85.321 20.9545C85.0802 20.9545 84.865 21.0067 84.6754 21.1112C84.4879 21.2156 84.3398 21.3679 84.2311 21.5682C84.1225 21.7685 84.0681 22.0114 84.0681 22.2969ZM89.3328 18.7045V25.25H88.5785V18.7045H89.3328ZM92.7086 25.3523C92.2654 25.3523 91.8766 25.2468 91.542 25.0359C91.2097 24.8249 90.9497 24.5298 90.7622 24.1506C90.5768 23.7713 90.4842 23.3281 90.4842 22.821C90.4842 22.3097 90.5768 21.8633 90.7622 21.4819C90.9497 21.1005 91.2097 20.8043 91.542 20.5934C91.8766 20.3825 92.2654 20.277 92.7086 20.277C93.1518 20.277 93.5396 20.3825 93.8719 20.5934C94.2065 20.8043 94.4664 21.1005 94.6518 21.4819C94.8393 21.8633 94.933 22.3097 94.933 22.821C94.933 23.3281 94.8393 23.7713 94.6518 24.1506C94.4664 24.5298 94.2065 24.8249 93.8719 25.0359C93.5396 25.2468 93.1518 25.3523 92.7086 25.3523ZM92.7086 24.6747C93.0452 24.6747 93.3222 24.5884 93.5396 24.4158C93.7569 24.2433 93.9177 24.0163 94.0222 23.7351C94.1266 23.4538 94.1788 23.1491 94.1788 22.821C94.1788 22.4929 94.1266 22.1871 94.0222 21.9038C93.9177 21.6204 93.7569 21.3913 93.5396 21.2166C93.3222 21.0419 93.0452 20.9545 92.7086 20.9545C92.3719 20.9545 92.0949 21.0419 91.8776 21.2166C91.6603 21.3913 91.4994 21.6204 91.395 21.9038C91.2906 22.1871 91.2384 22.4929 91.2384 22.821C91.2384 23.1491 91.2906 23.4538 91.395 23.7351C91.4994 24.0163 91.6603 24.2433 91.8776 24.4158C92.0949 24.5884 92.3719 24.6747 92.7086 24.6747ZM97.529 25.3651C97.2179 25.3651 96.9356 25.3065 96.682 25.1893C96.4285 25.07 96.2271 24.8984 96.078 24.6747C95.9288 24.4489 95.8543 24.1761 95.8543 23.8565C95.8543 23.5753 95.9097 23.3473 96.0205 23.1726C96.1313 22.9957 96.2793 22.8572 96.4647 22.7571C96.6501 22.657 96.8546 22.5824 97.0783 22.5334C97.3042 22.4822 97.5311 22.4418 97.7591 22.4119C98.0574 22.3736 98.2992 22.3448 98.4846 22.3256C98.6721 22.3043 98.8085 22.2692 98.8937 22.2202C98.981 22.1712 99.0247 22.0859 99.0247 21.9645V21.9389C99.0247 21.6236 98.9384 21.3786 98.7658 21.2038C98.5954 21.0291 98.3365 20.9418 97.9892 20.9418C97.6291 20.9418 97.3468 21.0206 97.1423 21.1783C96.9377 21.3359 96.7939 21.5043 96.7108 21.6832L95.9949 21.4276C96.1227 21.1293 96.2932 20.897 96.5063 20.7308C96.7215 20.5625 96.9558 20.4453 97.2094 20.3793C97.4651 20.3111 97.7165 20.277 97.9636 20.277C98.1213 20.277 98.3024 20.2962 98.507 20.3345C98.7136 20.3707 98.9129 20.4464 99.1046 20.5614C99.2985 20.6765 99.4594 20.8501 99.5872 21.0824C99.7151 21.3146 99.779 21.6257 99.779 22.0156V25.25H99.0247V24.5852H98.9864C98.9352 24.6918 98.85 24.8058 98.7307 24.9272C98.6114 25.0487 98.4526 25.152 98.2545 25.2372C98.0563 25.3224 97.8145 25.3651 97.529 25.3651ZM97.644 24.6875C97.9423 24.6875 98.1938 24.6289 98.3983 24.5117C98.605 24.3945 98.7605 24.2433 98.8649 24.0579C98.9715 23.8725 99.0247 23.6776 99.0247 23.473V22.7827C98.9928 22.821 98.9225 22.8562 98.8138 22.8881C98.7073 22.918 98.5837 22.9446 98.443 22.968C98.3046 22.9893 98.1693 23.0085 98.0372 23.0256C97.9072 23.0405 97.8017 23.0533 97.7207 23.0639C97.5247 23.0895 97.3415 23.131 97.171 23.1886C97.0027 23.244 96.8663 23.3281 96.7619 23.4411C96.6597 23.5518 96.6085 23.7031 96.6085 23.8949C96.6085 24.157 96.7055 24.3551 96.8994 24.4893C97.0954 24.6214 97.3436 24.6875 97.644 24.6875ZM103.009 25.3523C102.6 25.3523 102.239 25.2489 101.926 25.0423C101.613 24.8335 101.368 24.5394 101.191 24.1602C101.014 23.7788 100.926 23.3281 100.926 22.8082C100.926 22.2926 101.014 21.8452 101.191 21.4659C101.368 21.0866 101.614 20.7937 101.929 20.587C102.244 20.3803 102.609 20.277 103.022 20.277C103.342 20.277 103.594 20.3303 103.78 20.4368C103.967 20.5412 104.11 20.6605 104.208 20.7947C104.308 20.9268 104.386 21.0355 104.441 21.1207H104.505V18.7045H105.259V25.25H104.531V24.4957H104.441C104.386 24.5852 104.307 24.6982 104.205 24.8345C104.102 24.9687 103.956 25.0891 103.767 25.1957C103.577 25.3001 103.325 25.3523 103.009 25.3523ZM103.112 24.6747C103.414 24.6747 103.67 24.5959 103.879 24.4382C104.087 24.2784 104.246 24.0579 104.355 23.7766C104.464 23.4933 104.518 23.1662 104.518 22.7955C104.518 22.429 104.465 22.1083 104.358 21.8335C104.252 21.5565 104.094 21.3413 103.885 21.1879C103.676 21.0323 103.418 20.9545 103.112 20.9545C102.792 20.9545 102.526 21.0366 102.313 21.2006C102.102 21.3626 101.943 21.5831 101.836 21.8622C101.732 22.1392 101.68 22.4503 101.68 22.7955C101.68 23.1449 101.733 23.4624 101.84 23.7479C101.948 24.0312 102.108 24.2571 102.319 24.4254C102.532 24.5916 102.796 24.6747 103.112 24.6747ZM111.271 25.3523C110.828 25.3523 110.439 25.2468 110.105 25.0359C109.772 24.8249 109.512 24.5298 109.325 24.1506C109.139 23.7713 109.047 23.3281 109.047 22.821C109.047 22.3097 109.139 21.8633 109.325 21.4819C109.512 21.1005 109.772 20.8043 110.105 20.5934C110.439 20.3825 110.828 20.277 111.271 20.277C111.714 20.277 112.102 20.3825 112.434 20.5934C112.769 20.8043 113.029 21.1005 113.214 21.4819C113.402 21.8633 113.496 22.3097 113.496 22.821C113.496 23.3281 113.402 23.7713 113.214 24.1506C113.029 24.5298 112.769 24.8249 112.434 25.0359C112.102 25.2468 111.714 25.3523 111.271 25.3523ZM111.271 24.6747C111.608 24.6747 111.885 24.5884 112.102 24.4158C112.319 24.2433 112.48 24.0163 112.585 23.7351C112.689 23.4538 112.741 23.1491 112.741 22.821C112.741 22.4929 112.689 22.1871 112.585 21.9038C112.48 21.6204 112.319 21.3913 112.102 21.2166C111.885 21.0419 111.608 20.9545 111.271 20.9545C110.934 20.9545 110.657 21.0419 110.44 21.2166C110.223 21.3913 110.062 21.6204 109.958 21.9038C109.853 22.1871 109.801 22.4929 109.801 22.821C109.801 23.1491 109.853 23.4538 109.958 23.7351C110.062 24.0163 110.223 24.2433 110.44 24.4158C110.657 24.5884 110.934 24.6747 111.271 24.6747ZM115.401 22.2969V25.25H114.647V20.3409H115.376V21.108H115.439C115.555 20.8587 115.729 20.6584 115.964 20.5071C116.198 20.3537 116.501 20.277 116.871 20.277C117.204 20.277 117.495 20.3452 117.744 20.4815C117.993 20.6158 118.187 20.8203 118.326 21.0952C118.464 21.3679 118.533 21.7131 118.533 22.1307V25.25H117.779V22.1818C117.779 21.7962 117.679 21.4957 117.479 21.2805C117.278 21.0632 117.003 20.9545 116.654 20.9545C116.413 20.9545 116.198 21.0067 116.008 21.1112C115.821 21.2156 115.673 21.3679 115.564 21.5682C115.455 21.7685 115.401 22.0114 115.401 22.2969ZM124.578 20.3409V20.9801H122.034V20.3409H124.578ZM122.775 19.1648H123.529V23.8438C123.529 24.0568 123.56 24.2166 123.622 24.3232C123.686 24.4276 123.767 24.4979 123.865 24.5341C123.965 24.5682 124.071 24.5852 124.181 24.5852C124.265 24.5852 124.333 24.581 124.386 24.5724C124.439 24.5618 124.482 24.5533 124.514 24.5469L124.667 25.2244C124.616 25.2436 124.545 25.2628 124.453 25.282C124.361 25.3033 124.245 25.3139 124.105 25.3139C123.892 25.3139 123.683 25.2681 123.478 25.1765C123.276 25.0849 123.108 24.9453 122.973 24.7578C122.841 24.5703 122.775 24.3338 122.775 24.0483V19.1648ZM126.572 22.2969V25.25H125.818V18.7045H126.572V21.108H126.636C126.751 20.8544 126.924 20.6531 127.154 20.5039C127.386 20.3526 127.695 20.277 128.081 20.277C128.415 20.277 128.708 20.3441 128.959 20.4783C129.211 20.6104 129.406 20.8139 129.544 21.0888C129.685 21.3615 129.755 21.7088 129.755 22.1307V25.25H129.001V22.1818C129.001 21.7919 128.9 21.4904 128.697 21.2773C128.497 21.0621 128.219 20.9545 127.863 20.9545C127.616 20.9545 127.394 21.0067 127.198 21.1112C127.005 21.2156 126.851 21.3679 126.738 21.5682C126.627 21.7685 126.572 22.0114 126.572 22.2969ZM133.193 25.3523C132.72 25.3523 132.312 25.2479 131.969 25.0391C131.628 24.8281 131.365 24.5341 131.18 24.157C130.997 23.7777 130.905 23.3366 130.905 22.8338C130.905 22.331 130.997 21.8878 131.18 21.5043C131.365 21.1186 131.623 20.8182 131.953 20.603C132.286 20.3857 132.674 20.277 133.117 20.277C133.372 20.277 133.625 20.3196 133.874 20.4048C134.123 20.4901 134.35 20.6286 134.555 20.8203C134.759 21.0099 134.922 21.2614 135.044 21.5746C135.165 21.8878 135.226 22.2734 135.226 22.7315V23.0511H131.442V22.3991H134.459C134.459 22.1222 134.404 21.875 134.293 21.6577C134.184 21.4403 134.029 21.2688 133.826 21.1431C133.626 21.0174 133.389 20.9545 133.117 20.9545C132.816 20.9545 132.556 21.0291 132.337 21.1783C132.12 21.3253 131.952 21.517 131.835 21.7536C131.718 21.9901 131.659 22.2436 131.659 22.5142V22.9489C131.659 23.3196 131.723 23.6339 131.851 23.8917C131.981 24.1474 132.161 24.3423 132.391 24.4766C132.621 24.6087 132.889 24.6747 133.193 24.6747C133.392 24.6747 133.571 24.647 133.73 24.5916C133.892 24.5341 134.032 24.4489 134.149 24.3359C134.266 24.2209 134.357 24.0781 134.421 23.9077L135.149 24.1122C135.073 24.3594 134.944 24.5767 134.763 24.7642C134.582 24.9496 134.358 25.0945 134.091 25.1989C133.825 25.3011 133.526 25.3523 133.193 25.3523Z" fill="white"/>
<path d="M65.4076 42.25H64.0227L68.0284 31.3409H69.392L73.3977 42.25H72.0127L68.7528 33.0668H68.6676L65.4076 42.25ZM65.919 37.9886H71.5014V39.1605H65.919V37.9886ZM74.9264 45.3182V34.0682H76.1409V35.3679H76.2901C76.3824 35.2259 76.5103 35.0447 76.6736 34.8246C76.8405 34.6009 77.0784 34.402 77.3874 34.228C77.6999 34.0504 78.1225 33.9616 78.6551 33.9616C79.3441 33.9616 79.9513 34.1339 80.4769 34.4783C81.0024 34.8228 81.4126 35.3111 81.7073 35.9432C82.0021 36.5753 82.1495 37.321 82.1495 38.1804C82.1495 39.0469 82.0021 39.7979 81.7073 40.4336C81.4126 41.0657 81.0042 41.5558 80.4822 41.9038C79.9602 42.2482 79.3583 42.4205 78.6764 42.4205C78.1509 42.4205 77.7301 42.3335 77.414 42.1594C77.098 41.9819 76.8547 41.7812 76.6843 41.5575C76.5138 41.3303 76.3824 41.142 76.2901 40.9929H76.1835V45.3182H74.9264ZM76.1622 38.1591C76.1622 38.777 76.2528 39.3221 76.4339 39.7944C76.615 40.2631 76.8796 40.6307 77.2276 40.897C77.5756 41.1598 78.0017 41.2912 78.506 41.2912C79.0316 41.2912 79.4701 41.1527 79.8217 40.8757C80.1768 40.5952 80.4431 40.2187 80.6207 39.7464C80.8018 39.2706 80.8924 38.7415 80.8924 38.1591C80.8924 37.5838 80.8036 37.0653 80.626 36.6037C80.452 36.1385 80.1875 35.771 79.8323 35.5011C79.4808 35.2276 79.0387 35.0909 78.506 35.0909C77.9946 35.0909 77.5649 35.2205 77.2169 35.4798C76.8689 35.7354 76.6061 36.0941 76.4286 36.5558C76.251 37.0138 76.1622 37.5483 76.1622 38.1591ZM84.0671 45.3182V34.0682H85.2816V35.3679H85.4307C85.523 35.2259 85.6509 35.0447 85.8142 34.8246C85.9811 34.6009 86.2191 34.402 86.528 34.228C86.8405 34.0504 87.2631 33.9616 87.7958 33.9616C88.4847 33.9616 89.0919 34.1339 89.6175 34.4783C90.1431 34.8228 90.5532 35.3111 90.848 35.9432C91.1427 36.5753 91.2901 37.321 91.2901 38.1804C91.2901 39.0469 91.1427 39.7979 90.848 40.4336C90.5532 41.0657 90.1448 41.5558 89.6228 41.9038C89.1008 42.2482 88.4989 42.4205 87.8171 42.4205C87.2915 42.4205 86.8707 42.3335 86.5546 42.1594C86.2386 41.9819 85.9953 41.7812 85.8249 41.5575C85.6544 41.3303 85.523 41.142 85.4307 40.9929H85.3242V45.3182H84.0671ZM85.3029 38.1591C85.3029 38.777 85.3934 39.3221 85.5745 39.7944C85.7556 40.2631 86.0202 40.6307 86.3682 40.897C86.7162 41.1598 87.1424 41.2912 87.6466 41.2912C88.1722 41.2912 88.6108 41.1527 88.9623 40.8757C89.3174 40.5952 89.5838 40.2187 89.7613 39.7464C89.9424 39.2706 90.033 38.7415 90.033 38.1591C90.033 37.5838 89.9442 37.0653 89.7666 36.6037C89.5926 36.1385 89.3281 35.771 88.973 35.5011C88.6214 35.2276 88.1793 35.0909 87.6466 35.0909C87.1353 35.0909 86.7056 35.2205 86.3576 35.4798C86.0095 35.7354 85.7468 36.0941 85.5692 36.5558C85.3916 37.0138 85.3029 37.5483 85.3029 38.1591ZM94.4648 31.3409V42.25H93.2077V31.3409H94.4648ZM100.198 42.4205C99.4093 42.4205 98.7293 42.2464 98.1575 41.8984C97.5894 41.5469 97.1508 41.0568 96.8418 40.4283C96.5364 39.7962 96.3837 39.0611 96.3837 38.223C96.3837 37.3849 96.5364 36.6463 96.8418 36.0071C97.1508 35.3643 97.5805 34.8636 98.1309 34.505C98.6849 34.1428 99.3312 33.9616 100.07 33.9616C100.496 33.9616 100.917 34.0327 101.332 34.1747C101.748 34.3168 102.126 34.5476 102.467 34.8672C102.808 35.1832 103.079 35.6023 103.282 36.1243C103.484 36.6463 103.585 37.2891 103.585 38.0526V38.5852H97.2786V37.4986H102.307C102.307 37.0369 102.215 36.625 102.03 36.2628C101.849 35.9006 101.59 35.6147 101.252 35.4052C100.919 35.1957 100.524 35.0909 100.07 35.0909C99.5691 35.0909 99.1359 35.2152 98.7701 35.4638C98.4079 35.7088 98.1291 36.0284 97.9338 36.4226C97.7385 36.8168 97.6408 37.2393 97.6408 37.6903V38.4148C97.6408 39.0327 97.7474 39.5565 97.9604 39.9862C98.1771 40.4123 98.4771 40.7372 98.8607 40.9609C99.2442 41.1811 99.6899 41.2912 100.198 41.2912C100.528 41.2912 100.826 41.245 101.093 41.1527C101.362 41.0568 101.595 40.9148 101.79 40.7266C101.986 40.5348 102.137 40.2969 102.243 40.0128L103.458 40.3537C103.33 40.7656 103.115 41.1278 102.813 41.4403C102.511 41.7493 102.138 41.9908 101.694 42.1648C101.251 42.3352 100.752 42.4205 100.198 42.4205ZM115.853 34.0682C115.789 33.5284 115.53 33.1094 115.075 32.8111C114.621 32.5128 114.063 32.3636 113.403 32.3636C112.92 32.3636 112.497 32.4418 112.135 32.598C111.776 32.7543 111.496 32.9691 111.293 33.2425C111.094 33.516 110.995 33.8267 110.995 34.1747C110.995 34.4659 111.064 34.7163 111.203 34.9258C111.345 35.1317 111.526 35.304 111.746 35.4425C111.966 35.5774 112.197 35.6893 112.438 35.7781C112.68 35.8633 112.902 35.9325 113.104 35.9858L114.212 36.2841C114.496 36.3587 114.812 36.4616 115.16 36.593C115.512 36.7244 115.848 36.9038 116.167 37.131C116.49 37.3548 116.757 37.6424 116.966 37.994C117.176 38.3455 117.28 38.777 117.28 39.2884C117.28 39.8778 117.126 40.4105 116.817 40.8864C116.512 41.3622 116.064 41.7404 115.475 42.021C114.889 42.3015 114.177 42.4418 113.339 42.4418C112.557 42.4418 111.881 42.3157 111.309 42.0636C110.741 41.8114 110.294 41.4599 109.967 41.0089C109.644 40.5579 109.461 40.0341 109.418 39.4375H110.782C110.817 39.8494 110.956 40.1903 111.197 40.4602C111.442 40.7266 111.751 40.9254 112.124 41.0568C112.501 41.1847 112.905 41.2486 113.339 41.2486C113.843 41.2486 114.296 41.1669 114.697 41.0036C115.098 40.8366 115.416 40.6058 115.65 40.3111C115.885 40.0128 116.002 39.6648 116.002 39.267C116.002 38.9048 115.901 38.6101 115.698 38.3828C115.496 38.1555 115.23 37.9709 114.899 37.8288C114.569 37.6868 114.212 37.5625 113.829 37.456L112.486 37.0724C111.634 36.8274 110.959 36.4776 110.462 36.0231C109.965 35.5685 109.716 34.9737 109.716 34.2386C109.716 33.6278 109.882 33.0952 110.212 32.6406C110.546 32.1825 110.993 31.8274 111.554 31.5753C112.119 31.3196 112.749 31.1918 113.445 31.1918C114.148 31.1918 114.773 31.3178 115.32 31.57C115.867 31.8185 116.3 32.1594 116.62 32.5927C116.943 33.0259 117.114 33.5178 117.131 34.0682H115.853ZM122.84 34.0682V35.1335H118.6V34.0682H122.84ZM119.836 32.108H121.093V39.9062C121.093 40.2614 121.144 40.5277 121.247 40.7053C121.354 40.8793 121.489 40.9964 121.652 41.0568C121.819 41.1136 121.995 41.142 122.18 41.142C122.318 41.142 122.432 41.1349 122.521 41.1207C122.609 41.103 122.68 41.0888 122.734 41.0781L122.989 42.2074C122.904 42.2393 122.785 42.2713 122.632 42.3033C122.48 42.3388 122.286 42.3565 122.052 42.3565C121.697 42.3565 121.349 42.2802 121.008 42.1275C120.67 41.9748 120.39 41.7422 120.166 41.4297C119.946 41.1172 119.836 40.723 119.836 40.2472V32.108ZM127.967 42.4205C127.228 42.4205 126.58 42.2447 126.023 41.8931C125.469 41.5415 125.036 41.0497 124.723 40.4176C124.414 39.7855 124.26 39.0469 124.26 38.2017C124.26 37.3494 124.414 36.6055 124.723 35.9698C125.036 35.3342 125.469 34.8406 126.023 34.489C126.58 34.1374 127.228 33.9616 127.967 33.9616C128.706 33.9616 129.352 34.1374 129.906 34.489C130.464 34.8406 130.897 35.3342 131.206 35.9698C131.518 36.6055 131.674 37.3494 131.674 38.2017C131.674 39.0469 131.518 39.7855 131.206 40.4176C130.897 41.0497 130.464 41.5415 129.906 41.8931C129.352 42.2447 128.706 42.4205 127.967 42.4205ZM127.967 41.2912C128.528 41.2912 128.99 41.1474 129.352 40.8597C129.714 40.5721 129.982 40.1939 130.156 39.7251C130.33 39.2564 130.417 38.7486 130.417 38.2017C130.417 37.6548 130.33 37.1452 130.156 36.6729C129.982 36.2006 129.714 35.8189 129.352 35.5277C128.99 35.2365 128.528 35.0909 127.967 35.0909C127.406 35.0909 126.944 35.2365 126.582 35.5277C126.22 35.8189 125.952 36.2006 125.778 36.6729C125.604 37.1452 125.517 37.6548 125.517 38.2017C125.517 38.7486 125.604 39.2564 125.778 39.7251C125.952 40.1939 126.22 40.5721 126.582 40.8597C126.944 41.1474 127.406 41.2912 127.967 41.2912ZM133.593 42.25V34.0682H134.808V35.304H134.893C135.042 34.8991 135.312 34.5707 135.703 34.3185C136.093 34.0664 136.534 33.9403 137.024 33.9403C137.116 33.9403 137.232 33.9421 137.37 33.9457C137.509 33.9492 137.613 33.9545 137.684 33.9616V35.2401C137.642 35.2294 137.544 35.2134 137.391 35.1921C137.242 35.1673 137.084 35.1548 136.917 35.1548C136.52 35.1548 136.164 35.2383 135.852 35.4052C135.543 35.5685 135.298 35.7958 135.117 36.087C134.939 36.3746 134.851 36.7031 134.851 37.0724V42.25H133.593ZM142.356 42.4205C141.568 42.4205 140.887 42.2464 140.316 41.8984C139.748 41.5469 139.309 41.0568 139 40.4283C138.695 39.7962 138.542 39.0611 138.542 38.223C138.542 37.3849 138.695 36.6463 139 36.0071C139.309 35.3643 139.739 34.8636 140.289 34.505C140.843 34.1428 141.489 33.9616 142.228 33.9616C142.654 33.9616 143.075 34.0327 143.49 34.1747C143.906 34.3168 144.284 34.5476 144.625 34.8672C144.966 35.1832 145.238 35.6023 145.44 36.1243C145.642 36.6463 145.744 37.2891 145.744 38.0526V38.5852H139.437V37.4986H144.465C144.465 37.0369 144.373 36.625 144.188 36.2628C144.007 35.9006 143.748 35.6147 143.411 35.4052C143.077 35.1957 142.683 35.0909 142.228 35.0909C141.727 35.0909 141.294 35.2152 140.928 35.4638C140.566 35.7088 140.287 36.0284 140.092 36.4226C139.897 36.8168 139.799 37.2393 139.799 37.6903V38.4148C139.799 39.0327 139.906 39.5565 140.119 39.9862C140.335 40.4123 140.635 40.7372 141.019 40.9609C141.402 41.1811 141.848 41.2912 142.356 41.2912C142.686 41.2912 142.984 41.245 143.251 41.1527C143.521 41.0568 143.753 40.9148 143.949 40.7266C144.144 40.5348 144.295 40.2969 144.401 40.0128L145.616 40.3537C145.488 40.7656 145.273 41.1278 144.971 41.4403C144.669 41.7493 144.297 41.9908 143.853 42.1648C143.409 42.3352 142.91 42.4205 142.356 42.4205Z" fill="white"/>
</svg>
