<svg width="17" height="20" viewBox="0 0 17 20" fill="none" xmlns="http://www.w3.org/2000/svg">
<path d="M14.8335 9.5H2.8335V4.5H14.8335M13.3335 15.5C12.9357 15.5 12.5541 15.342 12.2728 15.0607C11.9915 14.7794 11.8335 14.3978 11.8335 14C11.8335 13.6022 11.9915 13.2206 12.2728 12.9393C12.5541 12.658 12.9357 12.5 13.3335 12.5C13.7313 12.5 14.1129 12.658 14.3942 12.9393C14.6755 13.2206 14.8335 13.6022 14.8335 14C14.8335 14.3978 14.6755 14.7794 14.3942 15.0607C14.1129 15.342 13.7313 15.5 13.3335 15.5ZM4.3335 15.5C3.93567 15.5 3.55414 15.342 3.27284 15.0607C2.99153 14.7794 2.8335 14.3978 2.8335 14C2.8335 13.6022 2.99153 13.2206 3.27284 12.9393C3.55414 12.658 3.93567 12.5 4.3335 12.5C4.73132 12.5 5.11285 12.658 5.39416 12.9393C5.67546 13.2206 5.8335 13.6022 5.8335 14C5.8335 14.3978 5.67546 14.7794 5.39416 15.0607C5.11285 15.342 4.73132 15.5 4.3335 15.5ZM0.833496 14.5C0.833496 15.38 1.2235 16.17 1.8335 16.72V18.5C1.8335 18.7652 1.93885 19.0196 2.12639 19.2071C2.31393 19.3946 2.56828 19.5 2.8335 19.5H3.8335C4.09871 19.5 4.35307 19.3946 4.5406 19.2071C4.72814 19.0196 4.8335 18.7652 4.8335 18.5V17.5H12.8335V18.5C12.8335 18.7652 12.9389 19.0196 13.1264 19.2071C13.3139 19.3946 13.5683 19.5 13.8335 19.5H14.8335C15.0987 19.5 15.3531 19.3946 15.5406 19.2071C15.7281 19.0196 15.8335 18.7652 15.8335 18.5V16.72C16.4435 16.17 16.8335 15.38 16.8335 14.5V4.5C16.8335 1 13.2535 0.5 8.8335 0.5C4.4135 0.5 0.833496 1 0.833496 4.5V14.5Z" fill="white"/>
</svg>
