<svg width="17" height="20" viewBox="0 0 17 20" fill="none" xmlns="http://www.w3.org/2000/svg">
<path d="M14.8334 9.5H2.83337V4.5H14.8334M13.3334 15.5C12.9355 15.5 12.554 15.342 12.2727 15.0607C11.9914 14.7794 11.8334 14.3978 11.8334 14C11.8334 13.6022 11.9914 13.2206 12.2727 12.9393C12.554 12.658 12.9355 12.5 13.3334 12.5C13.7312 12.5 14.1127 12.658 14.394 12.9393C14.6753 13.2206 14.8334 13.6022 14.8334 14C14.8334 14.3978 14.6753 14.7794 14.394 15.0607C14.1127 15.342 13.7312 15.5 13.3334 15.5ZM4.33337 15.5C3.93555 15.5 3.55402 15.342 3.27271 15.0607C2.99141 14.7794 2.83337 14.3978 2.83337 14C2.83337 13.6022 2.99141 13.2206 3.27271 12.9393C3.55402 12.658 3.93555 12.5 4.33337 12.5C4.7312 12.5 5.11273 12.658 5.39403 12.9393C5.67534 13.2206 5.83337 13.6022 5.83337 14C5.83337 14.3978 5.67534 14.7794 5.39403 15.0607C5.11273 15.342 4.7312 15.5 4.33337 15.5ZM0.833374 14.5C0.833374 15.38 1.22337 16.17 1.83337 16.72V18.5C1.83337 18.7652 1.93873 19.0196 2.12627 19.2071C2.3138 19.3946 2.56816 19.5 2.83337 19.5H3.83337C4.09859 19.5 4.35294 19.3946 4.54048 19.2071C4.72802 19.0196 4.83337 18.7652 4.83337 18.5V17.5H12.8334V18.5C12.8334 18.7652 12.9387 19.0196 13.1263 19.2071C13.3138 19.3946 13.5682 19.5 13.8334 19.5H14.8334C15.0986 19.5 15.3529 19.3946 15.5405 19.2071C15.728 19.0196 15.8334 18.7652 15.8334 18.5V16.72C16.4434 16.17 16.8334 15.38 16.8334 14.5V4.5C16.8334 1 13.2534 0.5 8.83337 0.5C4.41337 0.5 0.833374 1 0.833374 4.5V14.5Z" fill="#11305A"/>
</svg>
