<svg width="171" height="59" viewBox="0 0 171 59" fill="none" xmlns="http://www.w3.org/2000/svg">
<rect width="170.25" height="58.5" rx="8.48077" fill="#1C1B1E"/>
<path d="M22.5 42.6292V15.4057C22.5002 15.3466 22.5178 15.2889 22.5506 15.2398C22.5835 15.1908 22.6301 15.1525 22.6846 15.1297C22.7391 15.107 22.7991 15.1009 22.8571 15.1122C22.9151 15.1234 22.9685 15.1516 23.0105 15.193L37.1855 29.0168L23.0105 42.8419C22.9685 42.8834 22.9151 42.9115 22.8571 42.9227C22.7991 42.934 22.7391 42.9279 22.6846 42.9052C22.6301 42.8825 22.5835 42.8442 22.5506 42.7951C22.5178 42.746 22.5002 42.6883 22.5 42.6292ZM43.1289 34.697L25.3554 44.4892L25.3443 44.4954C25.0381 44.6616 24.7472 44.2474 24.9979 44.0063L38.9304 30.6841L43.1289 34.697ZM24.9993 14.0272C24.7472 13.7861 25.0381 13.3719 25.3457 13.5381L25.3567 13.5444L43.1289 23.3365L38.9304 27.3508L24.9993 14.0272ZM50.304 30.7485L45.3407 33.482L40.674 29.0168L45.3407 24.5536L50.304 27.285C51.6541 28.031 51.6541 30.0025 50.304 30.7485Z" fill="white"/>
<path d="M67.6201 18.2842C67.5498 18.069 67.4571 17.8762 67.342 17.7057C67.2291 17.5331 67.0938 17.3861 66.9361 17.2646C66.7806 17.1432 66.6037 17.0505 66.4056 16.9866C66.2074 16.9227 65.9901 16.8907 65.7536 16.8907C65.3658 16.8907 65.0132 16.9909 64.6957 17.1911C64.3782 17.3914 64.1258 17.6865 63.9383 18.0764C63.7508 18.4664 63.657 18.9447 63.657 19.5115C63.657 20.0782 63.7518 20.5566 63.9415 20.9465C64.1311 21.3364 64.3878 21.6315 64.7117 21.8318C65.0356 22.032 65.3999 22.1322 65.8047 22.1322C66.1797 22.1322 66.51 22.0523 66.7955 21.8925C67.0831 21.7306 67.3069 21.5026 67.4667 21.2085C67.6286 20.9124 67.7096 20.564 67.7096 20.1634L67.9525 20.2146H65.9837V19.5115H68.4766V20.2146C68.4766 20.7536 68.3616 21.2224 68.1314 21.6208C67.9035 22.0193 67.5881 22.3282 67.1854 22.5477C66.7848 22.765 66.3246 22.8737 65.8047 22.8737C65.2252 22.8737 64.716 22.7373 64.277 22.4646C63.8402 22.1919 63.4993 21.8041 63.2543 21.3012C63.0114 20.7984 62.89 20.2018 62.89 19.5115C62.89 18.9937 62.9592 18.5281 63.0977 18.1148C63.2383 17.6993 63.4365 17.3456 63.6922 17.0537C63.9478 16.7618 64.2504 16.5381 64.5998 16.3825C64.9493 16.227 65.3339 16.1492 65.7536 16.1492C66.0988 16.1492 66.4205 16.2014 66.7188 16.3058C67.0192 16.4081 67.2866 16.5541 67.521 16.7437C67.7575 16.9312 67.9546 17.156 68.1123 17.4181C68.2699 17.678 68.3786 17.9667 68.4383 18.2842H67.6201ZM71.7901 22.8865C71.3171 22.8865 70.909 22.782 70.566 22.5732C70.2251 22.3623 69.962 22.0683 69.7766 21.6911C69.5934 21.3119 69.5017 20.8708 69.5017 20.368C69.5017 19.8651 69.5934 19.422 69.7766 19.0384C69.962 18.6528 70.2198 18.3524 70.55 18.1372C70.8824 17.9198 71.2702 17.8112 71.7134 17.8112C71.9691 17.8112 72.2215 17.8538 72.4708 17.939C72.7201 18.0242 72.947 18.1627 73.1516 18.3545C73.3561 18.5441 73.5191 18.7955 73.6406 19.1088C73.762 19.422 73.8228 19.8076 73.8228 20.2657V20.5853H70.0387V19.9333H73.0557C73.0557 19.6563 73.0003 19.4092 72.8895 19.1918C72.7809 18.9745 72.6253 18.803 72.4229 18.6773C72.2226 18.5516 71.9861 18.4887 71.7134 18.4887C71.413 18.4887 71.153 18.5633 70.9335 18.7124C70.7162 18.8595 70.549 19.0512 70.4318 19.2877C70.3146 19.5242 70.256 19.7778 70.256 20.0484V20.483C70.256 20.8538 70.3199 21.1681 70.4478 21.4259C70.5777 21.6816 70.7578 21.8765 70.9879 22.0107C71.218 22.1428 71.4854 22.2089 71.7901 22.2089C71.9882 22.2089 72.1672 22.1812 72.327 22.1258C72.4889 22.0683 72.6285 21.983 72.7457 21.8701C72.8629 21.7551 72.9534 21.6123 73.0174 21.4419L73.746 21.6464C73.6693 21.8936 73.5404 22.1109 73.3593 22.2984C73.1782 22.4838 72.9545 22.6286 72.6882 22.733C72.4218 22.8353 72.1225 22.8865 71.7901 22.8865ZM77.1051 17.8751V18.5143H74.561V17.8751H77.1051ZM75.3025 16.699H76.0568V21.3779C76.0568 21.591 76.0877 21.7508 76.1495 21.8573C76.2134 21.9617 76.2943 22.032 76.3924 22.0683C76.4925 22.1024 76.598 22.1194 76.7088 22.1194C76.7919 22.1194 76.86 22.1151 76.9133 22.1066C76.9666 22.096 77.0092 22.0874 77.0411 22.0811L77.1946 22.7586C77.1434 22.7778 77.072 22.797 76.9804 22.8161C76.8888 22.8374 76.7727 22.8481 76.6321 22.8481C76.419 22.8481 76.2102 22.8023 76.0056 22.7107C75.8032 22.6191 75.6349 22.4795 75.5007 22.292C75.3686 22.1045 75.3025 21.868 75.3025 21.5825V16.699ZM80.7709 22.7842V17.8751H81.5252V22.7842H80.7709ZM81.1544 17.0569C81.0074 17.0569 80.8806 17.0068 80.7741 16.9067C80.6697 16.8066 80.6175 16.6862 80.6175 16.5455C80.6175 16.4049 80.6697 16.2845 80.7741 16.1844C80.8806 16.0843 81.0074 16.0342 81.1544 16.0342C81.3014 16.0342 81.4272 16.0843 81.5316 16.1844C81.6381 16.2845 81.6914 16.4049 81.6914 16.5455C81.6914 16.6862 81.6381 16.8066 81.5316 16.9067C81.4272 17.0068 81.3014 17.0569 81.1544 17.0569ZM85.0416 17.8751V18.5143H82.4976V17.8751H85.0416ZM83.239 16.699H83.9933V21.3779C83.9933 21.591 84.0242 21.7508 84.086 21.8573C84.1499 21.9617 84.2309 22.032 84.3289 22.0683C84.429 22.1024 84.5345 22.1194 84.6453 22.1194C84.7284 22.1194 84.7966 22.1151 84.8498 22.1066C84.9031 22.096 84.9457 22.0874 84.9777 22.0811L85.1311 22.7586C85.0799 22.7778 85.0086 22.797 84.9169 22.8161C84.8253 22.8374 84.7092 22.8481 84.5686 22.8481C84.3555 22.8481 84.1467 22.8023 83.9422 22.7107C83.7397 22.6191 83.5714 22.4795 83.4372 22.292C83.3051 22.1045 83.239 21.868 83.239 21.5825V16.699ZM90.7017 22.8865C90.2586 22.8865 89.8697 22.781 89.5352 22.57C89.2028 22.3591 88.9429 22.064 88.7554 21.6847C88.57 21.3055 88.4773 20.8623 88.4773 20.3552C88.4773 19.8438 88.57 19.3975 88.7554 19.0161C88.9429 18.6347 89.2028 18.3385 89.5352 18.1276C89.8697 17.9166 90.2586 17.8112 90.7017 17.8112C91.1449 17.8112 91.5327 17.9166 91.8651 18.1276C92.1996 18.3385 92.4596 18.6347 92.6449 19.0161C92.8324 19.3975 92.9262 19.8438 92.9262 20.3552C92.9262 20.8623 92.8324 21.3055 92.6449 21.6847C92.4596 22.064 92.1996 22.3591 91.8651 22.57C91.5327 22.781 91.1449 22.8865 90.7017 22.8865ZM90.7017 22.2089C91.0384 22.2089 91.3154 22.1226 91.5327 21.95C91.75 21.7774 91.9109 21.5505 92.0153 21.2693C92.1197 20.988 92.1719 20.6833 92.1719 20.3552C92.1719 20.0271 92.1197 19.7213 92.0153 19.4379C91.9109 19.1546 91.75 18.9255 91.5327 18.7508C91.3154 18.5761 91.0384 18.4887 90.7017 18.4887C90.3651 18.4887 90.0881 18.5761 89.8708 18.7508C89.6535 18.9255 89.4926 19.1546 89.3882 19.4379C89.2838 19.7213 89.2316 20.0271 89.2316 20.3552C89.2316 20.6833 89.2838 20.988 89.3882 21.2693C89.4926 21.5505 89.6535 21.7774 89.8708 21.95C90.0881 22.1226 90.3651 22.2089 90.7017 22.2089ZM94.8318 19.8311V22.7842H94.0775V17.8751H94.8062V18.6421H94.8702C94.9852 18.3928 95.1599 18.1926 95.3943 18.0413C95.6287 17.8879 95.9312 17.8112 96.302 17.8112C96.6344 17.8112 96.9252 17.8794 97.1745 18.0157C97.4238 18.1499 97.6177 18.3545 97.7562 18.6293C97.8947 18.9021 97.9639 19.2472 97.9639 19.6649V22.7842H97.2097V19.716C97.2097 19.3303 97.1095 19.0299 96.9092 18.8147C96.7089 18.5974 96.4341 18.4887 96.0847 18.4887C95.8439 18.4887 95.6287 18.5409 95.4391 18.6453C95.2516 18.7497 95.1035 18.9021 94.9948 19.1024C94.8861 19.3026 94.8318 19.5455 94.8318 19.8311Z" fill="white"/>
<path d="M71.1314 32.2842C71.0142 31.9255 70.8598 31.6041 70.668 31.32C70.4798 31.0324 70.2543 30.7874 69.9915 30.585C69.7323 30.3825 69.4375 30.2281 69.1073 30.1215C68.777 30.015 68.4148 29.9617 68.0206 29.9617C67.3743 29.9617 66.7866 30.1286 66.2575 30.4624C65.7284 30.7963 65.3076 31.2881 64.9951 31.9379C64.6826 32.5878 64.5263 33.385 64.5263 34.3296C64.5263 35.2742 64.6843 36.0715 65.0004 36.7213C65.3165 37.3712 65.7444 37.863 66.2841 38.1968C66.8239 38.5306 67.4312 38.6975 68.1059 38.6975C68.7309 38.6975 69.2813 38.5644 69.7571 38.298C70.2366 38.0281 70.6094 37.6482 70.8758 37.1581C71.1456 36.6645 71.2806 36.0839 71.2806 35.4163L71.6854 35.5015H68.4042V34.3296H72.559V35.5015C72.559 36.3999 72.3672 37.1812 71.9837 37.8453C71.6037 38.5093 71.0782 39.0242 70.407 39.39C69.7394 39.7522 68.9723 39.9333 68.1059 39.9333C67.14 39.9333 66.2912 39.7061 65.5597 39.2515C64.8317 38.797 64.2635 38.1507 63.8552 37.3126C63.4503 36.4745 63.2479 35.4802 63.2479 34.3296C63.2479 33.4667 63.3633 32.6908 63.5941 32.0019C63.8285 31.3094 64.1588 30.7199 64.5849 30.2334C65.0111 29.7469 65.5153 29.374 66.0977 29.1148C66.6801 28.8556 67.3211 28.7259 68.0206 28.7259C68.5959 28.7259 69.1321 28.8129 69.6293 28.9869C70.13 29.1574 70.5757 29.4007 70.9663 29.7167C71.3605 30.0292 71.689 30.4039 71.9517 30.8406C72.2145 31.2739 72.3956 31.7551 72.4951 32.2842H71.1314ZM77.9749 39.9546C77.2363 39.9546 76.5882 39.7789 76.0307 39.4273C75.4767 39.0757 75.0435 38.5839 74.731 37.9518C74.422 37.3197 74.2675 36.5811 74.2675 35.7359C74.2675 34.8836 74.422 34.1396 74.731 33.504C75.0435 32.8683 75.4767 32.3747 76.0307 32.0232C76.5882 31.6716 77.2363 31.4958 77.9749 31.4958C78.7136 31.4958 79.3599 31.6716 79.9138 32.0232C80.4714 32.3747 80.9046 32.8683 81.2136 33.504C81.5261 34.1396 81.6823 34.8836 81.6823 35.7359C81.6823 36.5811 81.5261 37.3197 81.2136 37.9518C80.9046 38.5839 80.4714 39.0757 79.9138 39.4273C79.3599 39.7789 78.7136 39.9546 77.9749 39.9546ZM77.9749 38.8254C78.536 38.8254 78.9976 38.6816 79.3599 38.3939C79.7221 38.1063 79.9902 37.7281 80.1642 37.2593C80.3382 36.7906 80.4252 36.2828 80.4252 35.7359C80.4252 35.189 80.3382 34.6794 80.1642 34.2071C79.9902 33.7348 79.7221 33.3531 79.3599 33.0619C78.9976 32.7707 78.536 32.6251 77.9749 32.6251C77.4138 32.6251 76.9522 32.7707 76.59 33.0619C76.2278 33.3531 75.9597 33.7348 75.7856 34.2071C75.6116 34.6794 75.5246 35.189 75.5246 35.7359C75.5246 36.2828 75.6116 36.7906 75.7856 37.2593C75.9597 37.7281 76.2278 38.1063 76.59 38.3939C76.9522 38.6816 77.4138 38.8254 77.9749 38.8254ZM86.9251 39.9546C86.1865 39.9546 85.5384 39.7789 84.9809 39.4273C84.4269 39.0757 83.9937 38.5839 83.6812 37.9518C83.3722 37.3197 83.2177 36.5811 83.2177 35.7359C83.2177 34.8836 83.3722 34.1396 83.6812 33.504C83.9937 32.8683 84.4269 32.3747 84.9809 32.0232C85.5384 31.6716 86.1865 31.4958 86.9251 31.4958C87.6638 31.4958 88.3101 31.6716 88.864 32.0232C89.4216 32.3747 89.8548 32.8683 90.1638 33.504C90.4763 34.1396 90.6325 34.8836 90.6325 35.7359C90.6325 36.5811 90.4763 37.3197 90.1638 37.9518C89.8548 38.5839 89.4216 39.0757 88.864 39.4273C88.3101 39.7789 87.6638 39.9546 86.9251 39.9546ZM86.9251 38.8254C87.4862 38.8254 87.9478 38.6816 88.3101 38.3939C88.6723 38.1063 88.9404 37.7281 89.1144 37.2593C89.2884 36.7906 89.3754 36.2828 89.3754 35.7359C89.3754 35.189 89.2884 34.6794 89.1144 34.2071C88.9404 33.7348 88.6723 33.3531 88.3101 33.0619C87.9478 32.7707 87.4862 32.6251 86.9251 32.6251C86.364 32.6251 85.9024 32.7707 85.5402 33.0619C85.178 33.3531 84.9098 33.7348 84.7358 34.2071C84.5618 34.6794 84.4748 35.189 84.4748 35.7359C84.4748 36.2828 84.5618 36.7906 84.7358 37.2593C84.9098 37.7281 85.178 38.1063 85.5402 38.3939C85.9024 38.6816 86.364 38.8254 86.9251 38.8254ZM95.854 43.0228C95.2468 43.0228 94.7247 42.9447 94.288 42.7884C93.8512 42.6357 93.4872 42.4333 93.196 42.1812C92.9083 41.9326 92.6793 41.6663 92.5088 41.3822L93.5103 40.6791C93.6239 40.8282 93.7677 40.9987 93.9417 41.1904C94.1157 41.3857 94.3536 41.5544 94.6555 41.6965C94.9609 41.8421 95.3604 41.9149 95.854 41.9149C96.5145 41.9149 97.0596 41.7551 97.4893 41.4355C97.919 41.1159 98.1338 40.6151 98.1338 39.9333V38.2714H98.0273C97.935 38.4205 97.8036 38.6052 97.6331 38.8254C97.4662 39.042 97.2247 39.2355 96.9087 39.406C96.5962 39.5729 96.1736 39.6563 95.6409 39.6563C94.9804 39.6563 94.3874 39.5001 93.8618 39.1876C93.3398 38.8751 92.9261 38.4205 92.6207 37.824C92.3188 37.2274 92.1679 36.5029 92.1679 35.6507C92.1679 34.8126 92.3153 34.0828 92.61 33.4614C92.9048 32.8364 93.3149 32.3534 93.8405 32.0125C94.3661 31.6681 94.9733 31.4958 95.6622 31.4958C96.1949 31.4958 96.6175 31.5846 96.93 31.7622C97.246 31.9362 97.4875 32.135 97.6544 32.3588C97.8249 32.5789 97.9563 32.76 98.0486 32.9021H98.1764V31.6024H99.3909V40.0186C99.3909 40.7217 99.2311 41.2934 98.9115 41.7338C98.5955 42.1776 98.1693 42.5026 97.6331 42.7085C97.1005 42.9181 96.5074 43.0228 95.854 43.0228ZM95.8114 38.5271C96.3157 38.5271 96.7418 38.4117 97.0898 38.1808C97.4378 37.95 97.7024 37.618 97.8835 37.1847C98.0646 36.7515 98.1551 36.233 98.1551 35.6293C98.1551 35.0399 98.0664 34.5196 97.8888 34.0686C97.7112 33.6176 97.4485 33.2643 97.1005 33.0086C96.7524 32.7529 96.3228 32.6251 95.8114 32.6251C95.2787 32.6251 94.8348 32.76 94.4797 33.0299C94.1282 33.2998 93.8636 33.662 93.686 34.1166C93.512 34.5711 93.425 35.0754 93.425 35.6293C93.425 36.1975 93.5138 36.7 93.6914 37.1368C93.8725 37.57 94.1388 37.911 94.4904 38.1595C94.8455 38.4046 95.2858 38.5271 95.8114 38.5271ZM102.949 28.8751V39.7842H101.692V28.8751H102.949ZM108.682 39.9546C107.894 39.9546 107.214 39.7806 106.642 39.4326C106.074 39.0811 105.635 38.591 105.326 37.9624C105.021 37.3303 104.868 36.5953 104.868 35.7572C104.868 34.9191 105.021 34.1805 105.326 33.5413C105.635 32.8985 106.065 32.3978 106.615 32.0392C107.169 31.6769 107.816 31.4958 108.554 31.4958C108.98 31.4958 109.401 31.5669 109.817 31.7089C110.232 31.8509 110.61 32.0818 110.951 32.4014C111.292 32.7174 111.564 33.1365 111.766 33.6585C111.969 34.1805 112.07 34.8232 112.07 35.5867V36.1194H105.763V35.0328H110.791C110.791 34.5711 110.699 34.1592 110.514 33.797C110.333 33.4347 110.074 33.1489 109.737 32.9394C109.403 32.7298 109.009 32.6251 108.554 32.6251C108.053 32.6251 107.62 32.7494 107.254 32.998C106.892 33.243 106.614 33.5626 106.418 33.9568C106.223 34.3509 106.125 34.7735 106.125 35.2245V35.949C106.125 36.5669 106.232 37.0906 106.445 37.5203C106.661 37.9465 106.962 38.2714 107.345 38.4951C107.729 38.7153 108.174 38.8254 108.682 38.8254C109.012 38.8254 109.311 38.7792 109.577 38.6869C109.847 38.591 110.079 38.449 110.275 38.2607C110.47 38.069 110.621 37.8311 110.727 37.547L111.942 37.8879C111.814 38.2998 111.599 38.662 111.297 38.9745C110.996 39.2835 110.623 39.5249 110.179 39.699C109.735 39.8694 109.236 39.9546 108.682 39.9546ZM118.371 39.7842V28.8751H122.057C122.913 28.8751 123.613 29.0296 124.156 29.3385C124.703 29.6439 125.108 30.0576 125.371 30.5796C125.633 31.1017 125.765 31.684 125.765 32.3268C125.765 32.9695 125.633 33.5537 125.371 34.0793C125.111 34.6048 124.71 35.0239 124.167 35.3364C123.623 35.6453 122.927 35.7998 122.079 35.7998H119.437V34.6279H122.036C122.622 34.6279 123.093 34.5267 123.448 34.3243C123.803 34.1219 124.06 33.8485 124.22 33.504C124.383 33.156 124.465 32.7636 124.465 32.3268C124.465 31.89 124.383 31.4994 124.22 31.1549C124.06 30.8105 123.801 30.5406 123.442 30.3453C123.084 30.1464 122.608 30.047 122.015 30.047H119.692V39.7842H118.371ZM128.979 28.8751V39.7842H127.722V28.8751H128.979ZM133.69 39.9759C133.171 39.9759 132.701 39.8783 132.278 39.683C131.855 39.4841 131.52 39.1982 131.271 38.8254C131.023 38.449 130.898 37.9944 130.898 37.4617C130.898 36.993 130.991 36.613 131.175 36.3218C131.36 36.0271 131.607 35.7963 131.916 35.6293C132.225 35.4624 132.566 35.3382 132.939 35.2565C133.315 35.1713 133.693 35.1038 134.073 35.0541C134.57 34.9901 134.973 34.9422 135.282 34.9102C135.595 34.8747 135.822 34.8161 135.964 34.7345C136.11 34.6528 136.182 34.5107 136.182 34.3083V34.2657C136.182 33.7401 136.039 33.3318 135.751 33.0406C135.467 32.7494 135.035 32.6038 134.457 32.6038C133.856 32.6038 133.386 32.7352 133.045 32.998C132.704 33.2607 132.464 33.5413 132.326 33.8396L131.133 33.4134C131.346 32.9163 131.63 32.5292 131.985 32.2522C132.344 31.9717 132.734 31.7764 133.157 31.6663C133.583 31.5526 134.002 31.4958 134.414 31.4958C134.677 31.4958 134.979 31.5278 135.32 31.5917C135.664 31.6521 135.996 31.7781 136.316 31.9699C136.639 32.1617 136.907 32.4511 137.12 32.8382C137.333 33.2252 137.44 33.7437 137.44 34.3936V39.7842H136.182V38.6762H136.119C136.033 38.8538 135.891 39.0438 135.692 39.2462C135.494 39.4486 135.229 39.6208 134.899 39.7629C134.568 39.9049 134.165 39.9759 133.69 39.9759ZM133.881 38.8467C134.379 38.8467 134.798 38.749 135.138 38.5537C135.483 38.3584 135.742 38.1063 135.916 37.7973C136.094 37.4884 136.182 37.1634 136.182 36.8225V35.672C136.129 35.7359 136.012 35.7945 135.831 35.8477C135.653 35.8975 135.447 35.9418 135.213 35.9809C134.982 36.0164 134.757 36.0484 134.537 36.0768C134.32 36.1017 134.144 36.123 134.009 36.1407C133.682 36.1833 133.377 36.2526 133.093 36.3485C132.812 36.4408 132.585 36.5811 132.411 36.7693C132.241 36.9539 132.155 37.2061 132.155 37.5257C132.155 37.9624 132.317 38.2927 132.64 38.5164C132.967 38.7366 133.381 38.8467 133.881 38.8467ZM140.251 42.8524C140.038 42.8524 139.848 42.8346 139.681 42.7991C139.514 42.7671 139.398 42.7352 139.335 42.7032L139.654 41.5953C139.96 41.6734 140.229 41.7018 140.464 41.6805C140.698 41.6592 140.906 41.5544 141.087 41.3662C141.272 41.1816 141.44 40.8815 141.593 40.466L141.827 39.8268L138.802 31.6024H140.166L142.424 38.1222H142.509L144.768 31.6024H146.131L142.658 40.9774C142.502 41.3999 142.309 41.7497 142.078 42.0267C141.847 42.3073 141.579 42.515 141.273 42.6499C140.972 42.7849 140.631 42.8524 140.251 42.8524Z" fill="white"/>
</svg>
