<svg width="175" height="40" viewBox="0 0 175 40" fill="none" xmlns="http://www.w3.org/2000/svg">
<path fill-rule="evenodd" clip-rule="evenodd" d="M20 40C31.0457 40 40 31.0457 40 20C40 8.9543 31.0457 0 20 0C8.9543 0 0 8.9543 0 20C0 31.0457 8.9543 40 20 40ZM25.9 14.4565L29.025 15.019L20.525 18.0815C20.2192 19.3933 20.0208 20.4507 19.7847 21.7085C19.599 22.6977 19.3901 23.8108 19.0875 25.269C18.9641 25.8009 18.8476 26.3106 18.7363 26.7978C17.2127 33.4651 16.6518 35.9197 12.4 33.7065L12.525 33.3315L12.9 33.4565V33.269C15.1583 34.9973 17.15 27.7065 18.275 18.8315L10.9 21.3315L13.15 18.7065V19.2065L18.525 17.394L19.15 11.9565C19.4 7.83145 22.5875 4.01897 24.775 6.26896C25.4275 7.06171 25.5875 7.45646 25.025 8.45646C24.9195 8.64396 24.7077 8.58146 24.5875 8.39396C23.58 6.82216 22.5548 7.51896 22.0875 9.26896C21.3082 12.1872 21.071 13.7949 20.775 16.644L26.025 14.8315L25.9 14.4565Z" fill="#0081FE"/>
<path d="M53.8327 20.4386V26.551C53.8327 27.5985 53.926 28.2866 54.1124 28.6151C54.3077 28.9347 54.7161 29.0945 55.3375 29.0945C55.373 29.0945 55.7193 29.1167 56.3762 29.161L56.6293 29.1744V30H48.5726V29.1744L48.8256 29.161C49.8999 29.09 50.5346 28.9391 50.7299 28.7083C50.9341 28.4686 51.0362 27.7495 51.0362 26.551V13.7402C51.0362 12.5328 50.9341 11.8137 50.7299 11.5829C50.5346 11.3521 49.8999 11.2012 48.8256 11.1301L48.5726 11.1035V10.2912H61.8761V13.7402H60.3979L60.3846 13.4872C60.3136 12.2621 60.2203 11.6007 60.1049 11.503C59.9895 11.4054 59.2793 11.3565 57.9743 11.3565H53.8327V19.3599H57.4416C58.2406 19.3599 58.7289 19.32 58.9064 19.2401C59.084 19.1602 59.195 18.7385 59.2393 17.975L59.2527 17.7353H60.318V22.0898H59.2527L59.2393 21.8368C59.195 21.1621 59.084 20.7626 58.9064 20.6383C58.7289 20.5051 58.2406 20.4386 57.4416 20.4386H53.8327ZM68.5478 8.97283V26.551C68.5478 27.7583 68.6454 28.4775 68.8407 28.7083C69.036 28.9391 69.6797 29.09 70.7717 29.161L71.0247 29.1744V30H63.4608V29.1744L63.7138 29.161C64.788 29.09 65.4228 28.9391 65.6181 28.7083C65.8223 28.4686 65.9244 27.7495 65.9244 26.551V12.4219C65.9244 11.2234 65.8223 10.5087 65.6181 10.2779C65.4228 10.0382 64.788 9.88281 63.7138 9.81179L63.4608 9.79847V8.97283H68.5478ZM73.728 35.2601L78.4688 30L73.9144 19.0403C73.435 17.8684 73.0799 17.1404 72.8491 16.8564C72.6183 16.5634 72.2631 16.4036 71.7837 16.377L71.5174 16.3636V15.538H78.1225V16.3636H77.8429C76.6355 16.3636 76.0318 16.5234 76.0318 16.843C76.0318 17.0028 76.2848 17.7353 76.7908 19.0403L80.0268 26.804L83.4759 19.0004C83.9819 17.8551 84.2349 17.1671 84.2349 16.9363C84.2349 16.5545 83.6978 16.3636 82.6236 16.3636H82.264V15.538H86.552V16.3636L86.299 16.377C85.7486 16.4125 85.2781 16.9141 84.8874 17.8817C84.8164 18.0504 84.6477 18.4322 84.3814 19.027L77.0439 35.2601H73.728ZM90.334 29.4407C89.3308 28.979 88.8292 28.3487 88.8292 27.5497C88.8292 27.0969 89.0378 26.6531 89.4551 26.218C89.8812 25.7741 90.516 25.3436 91.3594 24.9263C90.3828 24.4913 89.646 23.8876 89.1488 23.1152C88.6605 22.3429 88.4164 21.4062 88.4164 20.3054C88.4164 18.7607 88.9091 17.5266 89.8945 16.6033C90.8889 15.68 92.2161 15.2184 93.8762 15.2184C94.8883 15.2184 95.8027 15.4048 96.6195 15.7777L101.693 15.3782L101.027 16.9762L97.5517 16.4169C98.688 17.5089 99.2562 18.7962 99.2562 20.2788C99.2562 21.7614 98.7546 22.9865 97.7514 23.9542C96.7571 24.9219 95.4876 25.4057 93.9428 25.4057C93.3569 25.4057 92.7354 25.3125 92.0785 25.1261C91.7678 25.3658 91.5325 25.6232 91.3727 25.8984C91.2129 26.1648 91.133 26.4489 91.133 26.7507C91.133 27.381 91.6879 27.6962 92.7976 27.6962H95.1014C97.312 27.6962 98.8345 27.9315 99.669 28.402C100.504 28.8725 100.921 29.7292 100.921 30.9721C100.921 32.3659 100.29 33.4801 99.0298 34.3146C97.7692 35.158 96.1001 35.5797 94.0227 35.5797C92.043 35.5797 90.4494 35.2956 89.242 34.7275C88.0346 34.1681 87.4309 33.4224 87.4309 32.4902C87.4309 31.8865 87.6706 31.3317 88.15 30.8256C88.6383 30.3196 89.3663 29.858 90.334 29.4407ZM91.0398 20.1989C91.0398 21.6548 91.275 22.7512 91.7456 23.4881C92.2161 24.2161 92.9174 24.5801 93.8496 24.5801C94.7818 24.5801 95.4787 24.2161 95.9403 23.4881C96.402 22.7601 96.6328 21.6681 96.6328 20.2122C96.6328 17.4245 95.7095 16.0307 93.8629 16.0307C92.9219 16.0307 92.2161 16.377 91.7456 17.0694C91.275 17.7619 91.0398 18.805 91.0398 20.1989ZM91.0265 29.6671C90.698 29.9867 90.4494 30.3418 90.2807 30.7324C90.1209 31.1319 90.041 31.5714 90.041 32.0508C90.041 32.9652 90.3784 33.6488 91.0531 34.1016C91.7367 34.5632 92.7576 34.794 94.1159 34.794C95.4121 34.794 96.4419 34.5099 97.2054 33.9418C97.9778 33.3736 98.364 32.6056 98.364 31.638C98.364 30.981 98.1332 30.4883 97.6715 30.1598C97.2099 29.8313 96.513 29.6671 95.5808 29.6671H91.0265ZM110.362 30.3329C108.232 30.3329 106.549 29.6582 105.315 28.3088C104.081 26.9505 103.464 25.1039 103.464 22.769C103.464 20.4341 104.081 18.592 105.315 17.2425C106.549 15.8931 108.232 15.2184 110.362 15.2184C112.502 15.2184 114.184 15.8931 115.409 17.2425C116.643 18.592 117.26 20.4341 117.26 22.769C117.26 25.1039 116.643 26.9505 115.409 28.3088C114.175 29.6582 112.493 30.3329 110.362 30.3329ZM110.362 29.5073C111.543 29.5073 112.524 28.8725 113.305 27.603C114.087 26.3246 114.477 24.7132 114.477 22.769C114.477 20.8425 114.087 19.2401 113.305 17.9616C112.524 16.6744 111.543 16.0307 110.362 16.0307C109.191 16.0307 108.214 16.6744 107.433 17.9616C106.651 19.2401 106.261 20.8425 106.261 22.769C106.261 24.7132 106.647 26.3246 107.419 27.603C108.201 28.8725 109.182 29.5073 110.362 29.5073ZM131.07 29.5073C129.685 30.0577 128.331 30.3329 127.008 30.3329C124.895 30.3329 123.182 29.6271 121.868 28.2156C120.554 26.804 119.897 24.9663 119.897 22.7024C119.897 20.4386 120.528 18.6275 121.788 17.2692C123.058 15.902 124.744 15.2184 126.849 15.2184C127.923 15.2184 129.33 15.4359 131.07 15.8709V19.32H129.432L129.419 19.0803C129.419 17.0916 128.544 16.0973 126.795 16.0973C125.526 16.0973 124.514 16.6744 123.759 17.8285C123.013 18.9826 122.64 20.5451 122.64 22.516C122.64 24.5312 123.084 26.1204 123.972 27.2834C124.86 28.4464 126.067 29.0279 127.594 29.0279C128.908 29.0279 130.067 28.8059 131.07 28.362V29.5073ZM140.671 30.3329C138.541 30.3329 136.858 29.6582 135.624 28.3088C134.39 26.9505 133.773 25.1039 133.773 22.769C133.773 20.4341 134.39 18.592 135.624 17.2425C136.858 15.8931 138.541 15.2184 140.671 15.2184C142.811 15.2184 144.493 15.8931 145.718 17.2425C146.952 18.592 147.569 20.4341 147.569 22.769C147.569 25.1039 146.952 26.9505 145.718 28.3088C144.484 29.6582 142.802 30.3329 140.671 30.3329ZM140.671 29.5073C141.852 29.5073 142.833 28.8725 143.614 27.603C144.396 26.3246 144.786 24.7132 144.786 22.769C144.786 20.8425 144.396 19.2401 143.614 17.9616C142.833 16.6744 141.852 16.0307 140.671 16.0307C139.499 16.0307 138.523 16.6744 137.742 17.9616C136.96 19.2401 136.57 20.8425 136.57 22.769C136.57 24.7132 136.956 26.3246 137.728 27.603C138.51 28.8725 139.491 29.5073 140.671 29.5073ZM154.468 18.2546C155.231 17.2425 156.026 16.4835 156.851 15.9774C157.686 15.4714 158.556 15.2184 159.461 15.2184C160.518 15.2184 161.357 15.4714 161.978 15.9774C162.6 16.4835 162.999 17.2425 163.177 18.2546C164.02 17.2425 164.872 16.4835 165.733 15.9774C166.595 15.4714 167.46 15.2184 168.33 15.2184C170.923 15.2184 172.219 16.6388 172.219 19.4798V26.551C172.219 27.7583 172.312 28.4775 172.498 28.7083C172.694 28.9302 173.337 29.0811 174.429 29.161L174.682 29.1744V30H167.118V29.1744L167.371 29.161C168.463 29.0811 169.103 28.9302 169.289 28.7083C169.484 28.4775 169.582 27.7583 169.582 26.551V19.9592C169.582 18.8139 169.431 18.0238 169.129 17.5888C168.836 17.1449 168.308 16.9229 167.545 16.9229C166.905 16.9229 166.235 17.1094 165.534 17.4822C164.841 17.8551 164.113 18.4144 163.35 19.1602V26.551C163.35 27.7495 163.447 28.4686 163.643 28.7083C163.838 28.9391 164.477 29.09 165.56 29.161L165.813 29.1744V30H158.249V29.1744L158.502 29.161C159.594 29.09 160.234 28.9391 160.42 28.7083C160.615 28.4775 160.713 27.7583 160.713 26.551V19.9592C160.713 18.8317 160.567 18.046 160.274 17.6021C159.981 17.1493 159.466 16.9229 158.729 16.9229C158.036 16.9229 157.335 17.1094 156.625 17.4822C155.915 17.8551 155.195 18.4144 154.468 19.1602V26.551C154.468 27.7583 154.565 28.4775 154.76 28.7083C154.956 28.9391 155.599 29.09 156.691 29.161L156.944 29.1744V30H149.381V29.1744L149.634 29.161C150.708 29.09 151.343 28.9391 151.538 28.7083C151.742 28.4686 151.844 27.7495 151.844 26.551V18.987C151.844 17.7885 151.742 17.0739 151.538 16.843C151.343 16.6122 150.708 16.4569 149.634 16.377L149.381 16.3636V15.538H154.468V18.2546Z" fill="#0081FE"/>
</svg>
