<svg width="29" height="30" viewBox="0 0 29 30" fill="none" xmlns="http://www.w3.org/2000/svg">
<path d="M3.872 29.976C2.432 27.544 1.44 25.016 0.896 22.392C0.384 19.736 0.336 17.128 0.752 14.568C1.168 11.976 2.032 9.512 3.344 7.17599C4.688 4.80799 6.464 2.67999 8.672 0.791994L11.888 2.75999C12.464 3.112 12.72 3.56 12.656 4.10399C12.592 4.648 12.4 5.096 12.08 5.44799C11.344 6.34399 10.672 7.48 10.064 8.856C9.456 10.232 9.04 11.752 8.816 13.416C8.624 15.08 8.688 16.824 9.008 18.648C9.328 20.472 10.016 22.264 11.072 24.024C11.584 24.824 11.728 25.544 11.504 26.184C11.312 26.792 10.848 27.224 10.112 27.48L3.872 29.976ZM19.184 29.976C17.744 27.544 16.752 25.016 16.208 22.392C15.696 19.736 15.648 17.128 16.064 14.568C16.48 11.976 17.344 9.512 18.656 7.17599C20 4.80799 21.776 2.67999 23.984 0.791994L27.2 2.75999C27.776 3.112 28.032 3.56 27.968 4.10399C27.904 4.648 27.712 5.096 27.392 5.44799C26.656 6.34399 25.984 7.48 25.376 8.856C24.768 10.232 24.352 11.752 24.128 13.416C23.936 15.08 24 16.824 24.32 18.648C24.64 20.472 25.328 22.264 26.384 24.024C26.896 24.824 27.04 25.544 26.816 26.184C26.624 26.792 26.16 27.224 25.424 27.48L19.184 29.976Z" fill="#082F49" fill-opacity="0.7"/>
</svg>
