<svg width="26" height="26" viewBox="0 0 26 26" fill="none" xmlns="http://www.w3.org/2000/svg">
<path d="M12.7102 2.5332C6.93866 2.5332 2.24316 7.2287 2.24316 13.0002V17.3367C2.24316 18.4085 3.18205 19.2804 4.33657 19.2804H5.38327C5.66087 19.2804 5.9271 19.1701 6.12339 18.9738C6.31969 18.7775 6.42997 18.5113 6.42997 18.2337V12.8505C6.42997 12.5729 6.31969 12.3067 6.12339 12.1104C5.9271 11.9141 5.66087 11.8038 5.38327 11.8038H4.43286C5.01483 7.7531 8.50034 4.6266 12.7102 4.6266C16.92 4.6266 20.4055 7.7531 20.9875 11.8038H20.0371C19.7595 11.8038 19.4932 11.9141 19.2969 12.1104C19.1007 12.3067 18.9904 12.5729 18.9904 12.8505V19.2804C18.9904 20.4349 18.0515 21.3738 16.897 21.3738H14.8036V20.3271H10.6168V23.4672H16.897C19.206 23.4672 21.0838 21.5894 21.0838 19.2804C22.2383 19.2804 23.1772 18.4085 23.1772 17.3367V13.0002C23.1772 7.2287 18.4817 2.5332 12.7102 2.5332Z" fill="white"/>
</svg>
