<svg width="16" height="21" viewBox="0 0 16 21" fill="none" xmlns="http://www.w3.org/2000/svg">
<path d="M2 0.5C1.46957 0.5 0.960859 0.710714 0.585786 1.08579C0.210714 1.46086 0 1.96957 0 2.5V18.5C0 19.0304 0.210714 19.5391 0.585786 19.9142C0.960859 20.2893 1.46957 20.5 2 20.5H14C14.5304 20.5 15.0391 20.2893 15.4142 19.9142C15.7893 19.5391 16 19.0304 16 18.5V2.5C16 1.96957 15.7893 1.46086 15.4142 1.08579C15.0391 0.710714 14.5304 0.5 14 0.5H2ZM8 3.5C9.32608 3.5 10.5979 4.02678 11.5355 4.96447C12.4732 5.90215 13 7.17392 13 8.5C13 9.82608 12.4732 11.0979 11.5355 12.0355C10.5979 12.9732 9.32608 13.5 8 13.5C6.67392 13.5 5.40215 12.9732 4.46447 12.0355C3.52678 11.0979 3 9.82608 3 8.5C3 7.17392 3.52678 5.90215 4.46447 4.96447C5.40215 4.02678 6.67392 3.5 8 3.5ZM8 4.5C7.59 5.12 7.25 5.79 7.04 6.5H8.96C8.75 5.79 8.42 5.12 8 4.5ZM6.7 4.72C5.78 5.03 5 5.67 4.54 6.5H6C6.18 5.88 6.4 5.28 6.7 4.72ZM9.29 4.72C9.59 5.28 9.82 5.88 10 6.5H11.46C11 5.67 10.21 5.04 9.29 4.72ZM4.13 7.5C4.05 7.82 4 8.15 4 8.5C4 8.85 4.05 9.18 4.13 9.5H5.82C5.78 9.17 5.75 8.84 5.75 8.5C5.75 8.16 5.78 7.83 5.82 7.5H4.13ZM6.83 7.5C6.78 7.82 6.75 8.16 6.75 8.5C6.75 8.84 6.78 9.17 6.83 9.5H9.17C9.21 9.17 9.25 8.84 9.25 8.5C9.25 8.16 9.21 7.82 9.17 7.5H6.83ZM10.18 7.5C10.22 7.83 10.25 8.16 10.25 8.5C10.25 8.84 10.22 9.17 10.18 9.5H11.87C11.95 9.18 12 8.85 12 8.5C12 8.15 11.95 7.82 11.87 7.5H10.18ZM4.54 10.5C5 11.33 5.78 11.96 6.7 12.28C6.4 11.72 6.18 11.13 6 10.5H4.54ZM7.04 10.5C7.25 11.22 7.59 11.88 8 12.5C8.42 11.88 8.75 11.22 8.96 10.5H7.04ZM10 10.5C9.82 11.13 9.59 11.72 9.29 12.28C10.21 11.96 11 11.33 11.46 10.5H10ZM3 15.5H13V17.5H3V15.5Z" fill="white"/>
</svg>
