<svg width="25" height="24" viewBox="0 0 25 24" fill="none" xmlns="http://www.w3.org/2000/svg">
<path d="M21.9155 6.186C21.6855 5.326 21.0075 4.648 20.1475 4.418C18.5875 4 12.3335 4 12.3335 4C12.3335 4 6.0795 4 4.5195 4.418C3.6595 4.648 2.9815 5.326 2.7515 6.186C2.3335 7.746 2.3335 12 2.3335 12C2.3335 12 2.3335 16.254 2.7515 17.814C2.9815 18.674 3.6595 19.352 4.5195 19.582C6.0795 20 12.3335 20 12.3335 20C12.3335 20 18.5875 20 20.1475 19.582C21.0085 19.352 21.6855 18.674 21.9155 17.814C22.3335 16.254 22.3335 12 22.3335 12C22.3335 12 22.3335 7.746 21.9155 6.186ZM10.3335 14.598V9.402C10.3335 9.017 10.7505 8.777 11.0835 8.969L15.5835 11.567C15.9165 11.759 15.9165 12.241 15.5835 12.433L11.0835 15.031C10.7505 15.224 10.3335 14.983 10.3335 14.598Z" fill="white"/>
</svg>
