<svg width="25" height="24" viewBox="0 0 25 24" fill="none" xmlns="http://www.w3.org/2000/svg">
<path d="M22.7501 7V16C22.7501 16.71 22.3701 17.36 21.7501 17.72V19.25C21.7501 19.66 21.4101 20 21.0001 20H20.5001C20.0901 20 19.7501 19.66 19.7501 19.25V18H12.7501V19.25C12.7501 19.66 12.4101 20 12.0001 20H11.5001C11.0901 20 10.7501 19.66 10.7501 19.25V17.72C10.1401 17.36 9.75011 16.71 9.75011 16V7C9.75011 4 12.7501 4 16.2501 4C19.7501 4 22.7501 4 22.7501 7ZM13.7501 15C13.7501 14.45 13.3001 14 12.7501 14C12.2001 14 11.7501 14.45 11.7501 15C11.7501 15.55 12.2001 16 12.7501 16C13.3001 16 13.7501 15.55 13.7501 15ZM20.7501 15C20.7501 14.45 20.3001 14 19.7501 14C19.2001 14 18.7501 14.45 18.7501 15C18.7501 15.55 19.2001 16 19.7501 16C20.3001 16 20.7501 15.55 20.7501 15ZM20.7501 7H11.7501V11H20.7501V7ZM7.75011 9.5C7.72011 8.12 6.58011 7 5.20011 7.05C3.82011 7.08 2.72011 8.22 2.75011 9.6C2.78011 10.77 3.61011 11.77 4.75011 12V20H5.75011V12C6.93011 11.76 7.75011 10.71 7.75011 9.5Z" fill="#082F49" fill-opacity="0.4"/>
</svg>
