<svg width="25" height="24" viewBox="0 0 25 24" fill="none" xmlns="http://www.w3.org/2000/svg">
<path d="M7.7998 11H9.7998V13H7.7998V11ZM21.7998 5V19C21.7998 20.11 20.9098 21 19.7998 21H5.7998C4.6898 21 3.7998 20.1 3.7998 19V5C3.7998 3.9 4.6998 3 5.7998 3H6.7998V1H8.7998V3H16.7998V1H18.7998V3H19.7998C20.9098 3 21.7998 3.9 21.7998 5ZM5.7998 7H19.7998V5H5.7998V7ZM19.7998 19V9H5.7998V19H19.7998ZM15.7998 13V11H17.7998V13H15.7998ZM11.7998 13V11H13.7998V13H11.7998ZM7.7998 15H9.7998V17H7.7998V15ZM15.7998 17V15H17.7998V17H15.7998ZM11.7998 17V15H13.7998V17H11.7998Z" fill="#082F49" fill-opacity="0.4"/>
</svg>
