<svg width="25" height="24" viewBox="0 0 25 24" fill="none" xmlns="http://www.w3.org/2000/svg">
<path d="M8.09961 2C8.63004 2 9.13875 2.21071 9.51382 2.58579C9.8889 2.96086 10.0996 3.46957 10.0996 4C10.0996 4.53043 9.8889 5.03914 9.51382 5.41421C9.13875 5.78929 8.63004 6 8.09961 6C7.56918 6 7.06047 5.78929 6.6854 5.41421C6.31032 5.03914 6.09961 4.53043 6.09961 4C6.09961 3.46957 6.31032 2.96086 6.6854 2.58579C7.06047 2.21071 7.56918 2 8.09961 2ZM6.59961 7H9.59961C10.13 7 10.6387 7.21071 11.0138 7.58579C11.3889 7.96086 11.5996 8.46957 11.5996 9V14.5H10.0996V22H6.09961V14.5H4.59961V9C4.59961 8.46957 4.81032 7.96086 5.1854 7.58579C5.56047 7.21071 6.06918 7 6.59961 7ZM17.0996 2C17.63 2 18.1388 2.21071 18.5138 2.58579C18.8889 2.96086 19.0996 3.46957 19.0996 4C19.0996 4.53043 18.8889 5.03914 18.5138 5.41421C18.1388 5.78929 17.63 6 17.0996 6C16.5692 6 16.0605 5.78929 15.6854 5.41421C15.3103 5.03914 15.0996 4.53043 15.0996 4C15.0996 3.46957 15.3103 2.96086 15.6854 2.58579C16.0605 2.21071 16.5692 2 17.0996 2ZM15.5996 22V16H12.5996L15.1896 8.41C15.4396 7.59 16.1996 7 17.0996 7C17.9996 7 18.7596 7.59 19.0096 8.41L21.5996 16H18.5996V22H15.5996Z" fill="#082F49" fill-opacity="0.4"/>
</svg>
