<svg width="25" height="24" viewBox="0 0 25 24" fill="none" xmlns="http://www.w3.org/2000/svg">
<path d="M9.25 19.0001H15.25V21.0001H9.25C6.49 21.0001 4.25 18.7601 4.25 16.0001V7.00012H6.25V16.0001C6.25 17.6601 7.59 19.0001 9.25 19.0001ZM10.67 5.41012C11.45 4.63012 11.45 3.36012 10.67 2.58012C9.89 1.80012 8.62 1.80012 7.84 2.58012C7.06 3.36012 7.06 4.63012 7.84 5.41012C8.62 6.20012 9.88 6.20012 10.67 5.41012ZM11.75 9.00012C11.75 7.90012 10.85 7.00012 9.75 7.00012H9.25C8.15 7.00012 7.25 7.90012 7.25 9.00012V15.0001C7.25 16.6601 8.59 18.0001 10.25 18.0001H15.32L18.82 21.5001L20.25 20.0701L15.18 15.0001H11.75V9.00012Z" fill="#082F49" fill-opacity="0.4"/>
</svg>
